<?xml version="1.0" encoding="utf-8"?>
<svg id="floor4" version="1.1" xmlns="http://www.w3.org/2000/svg" xmlns:xlink="http://www.w3.org/1999/xlink" x="0px" y="0px"
	 viewBox="0 0 842 1191" style="enable-background:new 0 0 842 1191;" xml:space="preserve">
 <style type="text/css">.st0{fill:#E3E4E5;}
	.st1{fill:none;stroke:#000000;stroke-width:0.12;stroke-linecap:round;stroke-linejoin:round;stroke-miterlimit:10;}
	.st2{fill:none;stroke:#939393;stroke-width:0.5;stroke-miterlimit:10;}
	.st3{fill:#939393;}
	.st4{fill:none;stroke:#939393;stroke-width:0.75;stroke-miterlimit:10;}
	.st5{fill:none;stroke:#000000;stroke-width:1.5;stroke-miterlimit:10;}
	.st6{font-family:'Roboto-Black';}
	.st7{font-size:13.0625px;}
	.st8{fill:none;stroke:#939393;stroke-width:2;stroke-miterlimit:10;}
	.st9{fill:#7A8487;}
	.st10{font-size:12.8815px;}
	.st11{fill:#939393;stroke:#939393;stroke-width:0.5;stroke-miterlimit:10;}
	.st12{fill:none;stroke:#7A8487;stroke-miterlimit:10;}</style>

 <g>
  <title>background</title>
  <rect fill="none" id="canvas_background" height="402" width="582" y="-1" x="-1"/>
 </g>
 <g>
  <title>Layer 1</title>
  <g id="Layer_3">
   <path id="svg_1" d="m473.7,1041.8l91.8,-0.3l0,76.3l-137,0.8l-131.2,0l-1.1,-76.2l3.6,1l123.7,0.3l13.5,-1.8l0.1,-84.3l-0.1,-49.3l-0.1,-407.6l-1.9,-3.5l-5.3,-6.4l-6.5,-10.7l-2.8,-16.1l3.6,-13.8l4.6,-8.9l8.4,-9.4l0.3,-117l-0.2,-31.2l-35.5,-1.3l1.3,-24.9l34.5,-2.3l0.7,-15l127.4,-0.1l-0.4,59.3l1.5,67.3l-94.5,1.5l-0.1,2.3l0,13.1l0,39.5l7,2.2l9.5,5.4l4,3.3l38.9,0l33,0l1.7,39.2l-61.3,0.2l-7.5,17c0,0 -3,3.5 -4.1,4.6c-1.1,1.1 -4.9,4.3 -4.9,4.3l-16.4,7.4l0.2,341.8l43.9,-0.4l-0.1,37.6l49,0l0.7,90.6l-91.3,0l-0.6,65.5z" class="st0"/>
  </g>
  <g id="Layer_1">
   <line id="svg_2" y2="1115.7" x2="298.2" y1="1110.2" x1="298.2" class="st1"/>
   <line id="svg_3" y2="205.8" x2="436.4" y1="205.8" x1="433.3" class="st1"/>
   <line id="svg_4" y2="207" x2="562.7" y1="207" x1="436.4" class="st1"/>
   <line id="svg_5" y2="1115.7" x2="298.2" y1="1110.2" x1="298.2" class="st1"/>
   <line id="svg_6" y2="232.2" x2="434.2" y1="232.2" x1="299.7" class="st1"/>
   <line id="svg_7" y2="387.6" x2="225" y1="383.8" x1="225" class="st1"/>
   <line id="svg_8" y2="652.8" x2="438.8" y1="652.8" x1="437.3" class="st1"/>
   <line id="svg_9" y2="207" x2="436.4" y1="205.8" x1="436.4" class="st1"/>
   <line id="svg_10" y2="207.7" x2="487.8" y1="207.7" x1="436.4" class="st1"/>
   <line id="svg_11" y2="208.3" x2="562.7" y1="207.5" x1="562.1" class="st1"/>
   <line id="svg_12" y2="209.8" x2="562.7" y1="209" x1="562.1" class="st1"/>
   <line id="svg_13" y2="207.9" x2="562.7" y1="208.7" x1="562.1" class="st1"/>
   <line id="svg_14" y2="209.4" x2="562.7" y1="210.2" x1="562.1" class="st1"/>
   <line id="svg_15" y2="207.5" x2="562.1" y1="207" x1="561.6" class="st1"/>
   <line id="svg_16" y2="207.7" x2="560.6" y1="207" x1="559.9" class="st1"/>
   <line id="svg_17" y2="207.7" x2="559.2" y1="207" x1="558.4" class="st1"/>
   <line id="svg_18" y2="207.7" x2="557.6" y1="207" x1="556.7" class="st1"/>
   <line id="svg_19" y2="207.7" x2="555.9" y1="207" x1="555.4" class="st1"/>
   <line id="svg_20" y2="207.7" x2="554.5" y1="207" x1="553.7" class="st1"/>
   <line id="svg_21" y2="207.7" x2="553.1" y1="207" x1="552.3" class="st1"/>
   <line id="svg_22" y2="207.7" x2="551.5" y1="207" x1="550.6" class="st1"/>
   <line id="svg_23" y2="207.7" x2="549.8" y1="207" x1="549.2" class="st1"/>
   <line id="svg_24" y2="207.7" x2="548.4" y1="207" x1="547.6" class="st1"/>
   <line id="svg_25" y2="207.7" x2="546.7" y1="207" x1="546.1" class="st1"/>
   <line id="svg_26" y2="207.7" x2="545.4" y1="207" x1="544.4" class="st1"/>
   <line id="svg_27" y2="207.7" x2="543.7" y1="207" x1="543" class="st1"/>
   <line id="svg_28" y2="207.7" x2="542.2" y1="207" x1="541.4" class="st1"/>
   <line id="svg_29" y2="207.7" x2="540.5" y1="207" x1="540" class="st1"/>
   <line id="svg_30" y2="207.7" x2="539.1" y1="207" x1="538.3" class="st1"/>
   <line id="svg_31" y2="207.7" x2="537.5" y1="207" x1="536.9" class="st1"/>
   <line id="svg_32" y2="207.7" x2="536.1" y1="207" x1="535.3" class="st1"/>
   <line id="svg_33" y2="207.7" x2="534.4" y1="207" x1="533.9" class="st1"/>
   <line id="svg_34" y2="207.7" x2="533" y1="207" x1="532.2" class="st1"/>
   <line id="svg_35" y2="207.7" x2="531.4" y1="207" x1="530.7" class="st1"/>
   <line id="svg_36" y2="207.7" x2="529.9" y1="207" x1="529" class="st1"/>
   <line id="svg_37" y2="207.7" x2="528.3" y1="207" x1="527.7" class="st1"/>
   <line id="svg_38" y2="207.7" x2="526.8" y1="207" x1="526" class="st1"/>
   <line id="svg_39" y2="207.7" x2="525.2" y1="207" x1="524.6" class="st1"/>
   <line id="svg_40" y2="207.7" x2="523.8" y1="207" x1="522.9" class="st1"/>
   <line id="svg_41" y2="207.7" x2="522.1" y1="207" x1="521.5" class="st1"/>
   <line id="svg_42" y2="207.7" x2="520.7" y1="207" x1="519.9" class="st1"/>
   <line id="svg_43" y2="207.7" x2="519" y1="207" x1="518.2" class="st1"/>
   <line id="svg_44" y2="207.7" x2="517.7" y1="207" x1="516.8" class="st1"/>
   <line id="svg_45" y2="207.7" x2="516" y1="207" x1="515.3" class="st1"/>
   <line id="svg_46" y2="207.7" x2="514.5" y1="207" x1="513.8" class="st1"/>
   <line id="svg_47" y2="207.7" x2="512.8" y1="207" x1="512.1" class="st1"/>
   <line id="svg_48" y2="207.7" x2="511.4" y1="207" x1="510.6" class="st1"/>
   <line id="svg_49" y2="207.7" x2="509.8" y1="207" x1="508.9" class="st1"/>
   <line id="svg_50" y2="207.7" x2="508.4" y1="207" x1="507.6" class="st1"/>
   <line id="svg_51" y2="207.7" x2="506.7" y1="207" x1="505.9" class="st1"/>
   <line id="svg_52" y2="207.7" x2="505.3" y1="207" x1="504.5" class="st1"/>
   <line id="svg_53" y2="207.7" x2="503.7" y1="207" x1="502.8" class="st1"/>
   <line id="svg_54" y2="207.7" x2="502.3" y1="207" x1="501.3" class="st1"/>
   <line id="svg_55" y2="207.7" x2="500.6" y1="207" x1="499.8" class="st1"/>
   <line id="svg_56" y2="207.7" x2="499.1" y1="207" x1="498.3" class="st1"/>
   <line id="svg_57" y2="207.7" x2="497.6" y1="207" x1="496.6" class="st1"/>
   <line id="svg_58" y2="207.7" x2="496.1" y1="207" x1="495.2" class="st1"/>
   <line id="svg_59" y2="207.7" x2="494.4" y1="207" x1="493.6" class="st1"/>
   <line id="svg_60" y2="207.7" x2="493" y1="207" x1="492.2" class="st1"/>
   <line id="svg_61" y2="207.7" x2="491.3" y1="207" x1="490.5" class="st1"/>
   <line id="svg_62" y2="207.7" x2="489.7" y1="207" x1="489.1" class="st1"/>
   <line id="svg_63" y2="207.7" x2="488.3" y1="207" x1="487.5" class="st1"/>
   <line id="svg_64" y2="207.7" x2="486.8" y1="207" x1="486.1" class="st1"/>
   <line id="svg_65" y2="207.7" x2="485.1" y1="207" x1="484.4" class="st1"/>
   <line id="svg_66" y2="207.7" x2="483.6" y1="207" x1="482.9" class="st1"/>
   <line id="svg_67" y2="207.7" x2="482.1" y1="207" x1="481.2" class="st1"/>
   <line id="svg_68" y2="207.7" x2="480.7" y1="207" x1="479.8" class="st1"/>
   <line id="svg_69" y2="207.7" x2="479" y1="207" x1="478.2" class="st1"/>
   <line id="svg_70" y2="207.7" x2="477.4" y1="207" x1="476.8" class="st1"/>
   <line id="svg_71" y2="207.7" x2="476" y1="207" x1="475.1" class="st1"/>
   <line id="svg_72" y2="207.7" x2="474.3" y1="207" x1="473.7" class="st1"/>
   <line id="svg_73" y2="207.7" x2="472.9" y1="207" x1="472.1" class="st1"/>
   <line id="svg_74" y2="207.7" x2="471.2" y1="207" x1="470.6" class="st1"/>
   <line id="svg_75" y2="207.7" x2="469.7" y1="207" x1="468.9" class="st1"/>
   <line id="svg_76" y2="207.7" x2="468.2" y1="207" x1="467.5" class="st1"/>
   <line id="svg_77" y2="207.7" x2="466.7" y1="207" x1="465.9" class="st1"/>
   <line id="svg_78" y2="207.7" x2="465" y1="207" x1="464.5" class="st1"/>
   <line id="svg_79" y2="207.7" x2="463.6" y1="207" x1="462.8" class="st1"/>
   <line id="svg_80" y2="207.7" x2="462" y1="207" x1="461.4" class="st1"/>
   <line id="svg_81" y2="207.7" x2="460.6" y1="207" x1="459.7" class="st1"/>
   <line id="svg_82" y2="207.7" x2="458.9" y1="207" x1="458.4" class="st1"/>
   <line id="svg_83" y2="207.7" x2="457.5" y1="207" x1="456.7" class="st1"/>
   <line id="svg_84" y2="207.7" x2="455.9" y1="207" x1="455.2" class="st1"/>
   <line id="svg_85" y2="207.7" x2="454.4" y1="207" x1="453.5" class="st1"/>
   <line id="svg_86" y2="207.7" x2="452.8" y1="207" x1="452" class="st1"/>
   <line id="svg_87" y2="207.7" x2="451.3" y1="207" x1="450.5" class="st1"/>
   <line id="svg_88" y2="207.7" x2="449.6" y1="207" x1="449.1" class="st1"/>
   <line id="svg_89" y2="207.7" x2="448.3" y1="207" x1="447.4" class="st1"/>
   <line id="svg_90" y2="207.7" x2="446.6" y1="207" x1="445.8" class="st1"/>
   <line id="svg_91" y2="207.7" x2="445.2" y1="207" x1="444.4" class="st1"/>
   <line id="svg_92" y2="207.7" x2="443.5" y1="207" x1="443" class="st1"/>
   <line id="svg_93" y2="207.7" x2="442" y1="207" x1="441.3" class="st1"/>
   <line id="svg_94" y2="207.7" x2="440.5" y1="207" x1="439.7" class="st1"/>
   <line id="svg_95" y2="207.7" x2="439" y1="207" x1="438.3" class="st1"/>
   <line id="svg_96" y2="207.7" x2="437.3" y1="207" x1="436.8" class="st1"/>
   <line id="svg_97" y2="207" x2="437.3" y1="207.7" x1="436.6" class="st1"/>
   <line id="svg_98" y2="207" x2="438.8" y1="207.7" x1="438.1" class="st1"/>
   <line id="svg_99" y2="207" x2="440.3" y1="207.7" x1="439.6" class="st1"/>
   <line id="svg_100" y2="207" x2="442" y1="207.7" x1="441" class="st1"/>
   <line id="svg_101" y2="207" x2="443.5" y1="207.7" x1="442.7" class="st1"/>
   <line id="svg_102" y2="207" x2="444.9" y1="207.7" x1="444.3" class="st1"/>
   <line id="svg_103" y2="207" x2="446.5" y1="207.7" x1="445.8" class="st1"/>
   <line id="svg_104" y2="207" x2="448.2" y1="207.7" x1="447.4" class="st1"/>
   <line id="svg_105" y2="207" x2="449.6" y1="207.7" x1="448.8" class="st1"/>
   <line id="svg_106" y2="207" x2="451.1" y1="207.7" x1="450.4" class="st1"/>
   <line id="svg_107" y2="207" x2="452.6" y1="207.7" x1="452" class="st1"/>
   <line id="svg_108" y2="207" x2="454.3" y1="207.7" x1="453.5" class="st1"/>
   <line id="svg_109" y2="207" x2="455.8" y1="207.7" x1="455" class="st1"/>
   <line id="svg_110" y2="207" x2="457.5" y1="207.7" x1="456.5" class="st1"/>
   <line id="svg_111" y2="207" x2="458.8" y1="207.7" x1="458.1" class="st1"/>
   <line id="svg_112" y2="207" x2="460.5" y1="207.7" x1="459.7" class="st1"/>
   <line id="svg_113" y2="207" x2="462" y1="207.7" x1="461.1" class="st1"/>
   <line id="svg_114" y2="207" x2="463.6" y1="207.7" x1="462.7" class="st1"/>
   <line id="svg_115" y2="207" x2="465" y1="207.7" x1="464.2" class="st1"/>
   <line id="svg_116" y2="207" x2="466.5" y1="207.7" x1="465.8" class="st1"/>
   <line id="svg_117" y2="207" x2="468.2" y1="207.7" x1="467.5" class="st1"/>
   <line id="svg_118" y2="207" x2="469.7" y1="207.7" x1="468.8" class="st1"/>
   <line id="svg_119" y2="207" x2="471.2" y1="207.7" x1="470.4" class="st1"/>
   <line id="svg_120" y2="207" x2="472.6" y1="207.7" x1="472" class="st1"/>
   <line id="svg_121" y2="207" x2="474.3" y1="207.7" x1="473.7" class="st1"/>
   <line id="svg_122" y2="207" x2="475.9" y1="207.7" x1="475.1" class="st1"/>
   <line id="svg_123" y2="207" x2="477.4" y1="207.7" x1="476.5" class="st1"/>
   <line id="svg_124" y2="207" x2="478.7" y1="207.7" x1="478.1" class="st1"/>
   <line id="svg_125" y2="207" x2="480.4" y1="207.7" x1="479.8" class="st1"/>
   <line id="svg_126" y2="207" x2="482" y1="207.7" x1="481.2" class="st1"/>
   <line id="svg_127" y2="207" x2="483.6" y1="207.7" x1="482.7" class="st1"/>
   <line id="svg_128" y2="207" x2="485.1" y1="207.7" x1="484.2" class="st1"/>
   <line id="svg_129" y2="207" x2="486.6" y1="207.7" x1="485.9" class="st1"/>
   <line id="svg_130" y2="207" x2="488.1" y1="207.7" x1="487.4" class="st1"/>
   <line id="svg_131" y2="207" x2="489.7" y1="207.7" x1="488.8" class="st1"/>
   <line id="svg_132" y2="207" x2="491.3" y1="207.7" x1="490.4" class="st1"/>
   <line id="svg_133" y2="207" x2="492.7" y1="207.7" x1="492.1" class="st1"/>
   <line id="svg_134" y2="207" x2="494.3" y1="207.7" x1="493.5" class="st1"/>
   <line id="svg_135" y2="207" x2="495.9" y1="207.7" x1="495.2" class="st1"/>
   <line id="svg_136" y2="207" x2="497.4" y1="207.7" x1="496.5" class="st1"/>
   <line id="svg_137" y2="207" x2="498.9" y1="207.7" x1="498.2" class="st1"/>
   <line id="svg_138" y2="207" x2="500.4" y1="207.7" x1="499.6" class="st1"/>
   <line id="svg_139" y2="207" x2="502" y1="207.7" x1="501.3" class="st1"/>
   <line id="svg_140" y2="207" x2="503.6" y1="207.7" x1="502.8" class="st1"/>
   <line id="svg_141" y2="207" x2="505.3" y1="207.7" x1="504.3" class="st1"/>
   <line id="svg_142" y2="207" x2="506.6" y1="207.7" x1="505.8" class="st1"/>
   <line id="svg_143" y2="207" x2="508.1" y1="207.7" x1="507.5" class="st1"/>
   <line id="svg_144" y2="207" x2="509.7" y1="207.7" x1="508.9" class="st1"/>
   <line id="svg_145" y2="207" x2="511.4" y1="207.7" x1="510.5" class="st1"/>
   <line id="svg_146" y2="207" x2="512.8" y1="207.7" x1="512.1" class="st1"/>
   <line id="svg_147" y2="207" x2="514.3" y1="207.7" x1="513.6" class="st1"/>
   <line id="svg_148" y2="207" x2="515.8" y1="207.7" x1="515.3" class="st1"/>
   <line id="svg_149" y2="207" x2="517.5" y1="207.7" x1="516.5" class="st1"/>
   <line id="svg_150" y2="207" x2="519" y1="207.7" x1="518.2" class="st1"/>
   <line id="svg_151" y2="207" x2="520.4" y1="207.7" x1="519.8" class="st1"/>
   <line id="svg_152" y2="207" x2="522" y1="207.7" x1="521.5" class="st1"/>
   <line id="svg_153" y2="207" x2="523.7" y1="207.7" x1="522.9" class="st1"/>
   <line id="svg_154" y2="207" x2="525.1" y1="207.7" x1="524.3" class="st1"/>
   <line id="svg_155" y2="207" x2="526.6" y1="207.7" x1="525.9" class="st1"/>
   <line id="svg_156" y2="207" x2="528.1" y1="207.7" x1="527.5" class="st1"/>
   <line id="svg_157" y2="207" x2="529.8" y1="207.7" x1="529" class="st1"/>
   <line id="svg_158" y2="207" x2="531.3" y1="207.7" x1="530.5" class="st1"/>
   <line id="svg_159" y2="207" x2="533" y1="207.7" x1="532" class="st1"/>
   <line id="svg_160" y2="207" x2="534.4" y1="207.7" x1="533.6" class="st1"/>
   <line id="svg_161" y2="207" x2="536" y1="207.7" x1="535.2" class="st1"/>
   <line id="svg_162" y2="207" x2="537.4" y1="207.7" x1="536.6" class="st1"/>
   <line id="svg_163" y2="207" x2="539.1" y1="207.7" x1="538.2" class="st1"/>
   <line id="svg_164" y2="207" x2="540.5" y1="207.7" x1="539.7" class="st1"/>
   <line id="svg_165" y2="207" x2="542.1" y1="207.7" x1="541.3" class="st1"/>
   <line id="svg_166" y2="207" x2="543.5" y1="207.7" x1="543" class="st1"/>
   <line id="svg_167" y2="207" x2="545.2" y1="207.7" x1="544.4" class="st1"/>
   <line id="svg_168" y2="207" x2="546.7" y1="207.7" x1="545.9" class="st1"/>
   <line id="svg_169" y2="207" x2="548.2" y1="207.7" x1="547.5" class="st1"/>
   <line id="svg_170" y2="207" x2="549.7" y1="207.7" x1="549.2" class="st1"/>
   <line id="svg_171" y2="207" x2="551.4" y1="207.7" x1="550.6" class="st1"/>
   <line id="svg_172" y2="207" x2="552.8" y1="207.7" x1="552" class="st1"/>
   <line id="svg_173" y2="207" x2="554.5" y1="207.7" x1="553.6" class="st1"/>
   <line id="svg_174" y2="207" x2="555.8" y1="207.7" x1="555.3" class="st1"/>
   <line id="svg_175" y2="207" x2="557.5" y1="207.7" x1="556.7" class="st1"/>
   <line id="svg_176" y2="207" x2="558.9" y1="207.7" x1="558.2" class="st1"/>
   <line id="svg_177" y2="207" x2="560.6" y1="207.7" x1="559.7" class="st1"/>
   <line id="svg_178" y2="207" x2="562.1" y1="207.7" x1="561.4" class="st1"/>
   <line id="svg_179" y2="981.8" x2="299.7" y1="982" x1="299.7" class="st1"/>
   <line id="svg_180" y2="370" x2="299.7" y1="369.9" x1="299.7" class="st1"/>
   <line id="svg_181" y2="1121.1" x2="436.6" y1="1117.3" x1="432.9" class="st1"/>
   <line id="svg_182" y2="1121.1" x2="435.9" y1="1118.1" x1="432.9" class="st1"/>
   <line id="svg_183" y2="1121.1" x2="435.1" y1="1119" x1="432.9" class="st1"/>
   <line id="svg_184" y2="1121.1" x2="434.3" y1="1119.6" x1="432.9" class="st1"/>
   <line id="svg_185" y2="1121.1" x2="433.4" y1="1120.4" x1="432.9" class="st1"/>
   <line id="svg_186" y2="500.7" x2="299.8" y1="500.7" x1="299.7" class="st1"/>
   <line id="svg_187" y2="631.4" x2="299.9" y1="631.4" x1="299.7" class="st1"/>
   <line id="svg_188" y2="783.9" x2="299.9" y1="783.9" x1="299.7" class="st1"/>
   <line id="svg_189" y2="914.9" x2="299.7" y1="914.6" x1="299.7" class="st1"/>
   <line id="svg_190" y2="846.2" x2="437.5" y1="846.2" x1="437.3" class="st1"/>
   <line id="svg_191" y2="207.7" x2="562.1" y1="207.7" x1="489.5" class="st1"/>
   <line id="svg_192" y2="979.9" x2="299.7" y1="979.9" x1="299.5" class="st1"/>
   <line id="svg_193" y2="496.4" x2="434.7" y1="494.7" x1="433" class="st1"/>
   <line id="svg_194" y2="497.1" x2="434.7" y1="495.4" x1="433" class="st1"/>
   <line id="svg_195" y2="432.2" x2="437.7" y1="431.8" x1="437.3" class="st1"/>
   <line id="svg_196" y2="502.8" x2="438.8" y1="502.5" x1="438.6" class="st1"/>
   <line id="svg_197" y2="503.4" x2="438.8" y1="502.5" x1="437.9" class="st1"/>
   <line id="svg_198" y2="504.2" x2="438.8" y1="502.5" x1="437.3" class="st1"/>
   <line id="svg_199" y2="505" x2="438.8" y1="503.4" x1="437.3" class="st1"/>
   <line id="svg_200" y2="505.9" x2="438.8" y1="504.2" x1="437.3" class="st1"/>
   <line id="svg_201" y2="506.5" x2="438.8" y1="505" x1="437.3" class="st1"/>
   <line id="svg_202" y2="507.3" x2="438.8" y1="505.6" x1="437.3" class="st1"/>
   <line id="svg_203" y2="508.1" x2="438.8" y1="506.4" x1="437.3" class="st1"/>
   <line id="svg_204" y2="508.9" x2="438.8" y1="507.3" x1="437.3" class="st1"/>
   <line id="svg_205" y2="509.8" x2="438.8" y1="508.1" x1="437.3" class="st1"/>
   <line id="svg_206" y2="510.3" x2="438.8" y1="508.9" x1="437.3" class="st1"/>
   <line id="svg_207" y2="511.1" x2="438.8" y1="509.6" x1="437.3" class="st1"/>
   <line id="svg_208" y2="512" x2="438.8" y1="510.3" x1="437.3" class="st1"/>
   <line id="svg_209" y2="512.7" x2="438.8" y1="511.1" x1="437.3" class="st1"/>
   <line id="svg_210" y2="513.5" x2="438.8" y1="511.8" x1="437.3" class="st1"/>
   <line id="svg_211" y2="514.3" x2="438.8" y1="512.6" x1="437.3" class="st1"/>
   <line id="svg_212" y2="515" x2="438.8" y1="513.5" x1="437.3" class="st1"/>
   <line id="svg_213" y2="516" x2="438.8" y1="514.3" x1="437.3" class="st1"/>
   <line id="svg_214" y2="516.6" x2="438.8" y1="515" x1="437.3" class="st1"/>
   <line id="svg_215" y2="517.4" x2="438.8" y1="515.7" x1="437.3" class="st1"/>
   <line id="svg_216" y2="518.2" x2="438.8" y1="516.5" x1="437.3" class="st1"/>
   <line id="svg_217" y2="518.8" x2="438.8" y1="517.4" x1="437.3" class="st1"/>
   <line id="svg_218" y2="519.9" x2="438.8" y1="517.9" x1="437.3" class="st1"/>
   <line id="svg_219" y2="520.4" x2="438.8" y1="518.8" x1="437.3" class="st1"/>
   <line id="svg_220" y2="521.2" x2="438.8" y1="519.6" x1="437.3" class="st1"/>
   <line id="svg_221" y2="652.8" x2="438.1" y1="652.1" x1="437.3" class="st1"/>
   <rect id="svg_222" height="4.6" width="10.2" class="st3" y="883" x="490.9"/>
   <rect id="svg_223" height="4.7" width="10.1" class="st3" y="882.9" x="473.3"/>
   <rect id="svg_224" height="4.7" width="38.3" class="st3" transform="matrix(-1.83697e-16,1,-1,-1.83697e-16,1343.9993,392.7656) " y="866" x="456.5"/>
   <rect id="svg_225" height="4.7" width="43.3" class="st3" y="849.3" x="473.4"/>
   <rect id="svg_226" height="4.6" width="37.2" class="st3" transform="matrix(-1.83697e-16,1,-1,-1.83697e-16,1383.3296,354.5129) " y="866.6" x="495.8"/>
   <rect id="svg_227" height="4.6" width="7.2" class="st3" y="883" x="508.3"/>
   <rect id="svg_228" height="4" width="820.5" class="st3" transform="matrix(6.123234e-17,-1,1,6.123234e-17,-343.386,938.9858) " y="639.2" x="-112.5"/>
   <rect id="svg_229" height="4.1" width="145.4" class="st3" y="231" x="295.8"/>
   <rect id="svg_230" height="4.1" width="133.3" class="st3" y="204.3" x="432.9"/>
   <path id="svg_231" d="m435.2,503.2l-0.3,0l0,0l-40.5,0l0,0.5l3.3,0l0,11.1l-3.4,0l0,0.5l29.1,0l0,4.6l0.3,0l0,0l11.2,0l0,0l0.3,0l0,-16.7zm-34.3,11.6l-2.7,0l0,-11.1l2.7,0l0,11.1zm3.2,0l-2.7,0l0,-11.1l2.7,0l0,11.1zm3.2,0l-2.7,0l0,-11.1l2.7,0l0,11.1zm3.2,0l-2.7,0l0,-11.1l2.7,0l0,11.1zm3.2,0l-2.7,0l0,-11.1l2.7,0l0,11.1zm3.2,0l-2.7,0l0,-11.1l2.7,0l0,11.1zm3.3,0l-2.7,0l0,-11.1l2.7,0l0,11.1zm3.2,0l-2.7,0l0,-11.1l2.7,0l0,11.1zm0.5,-11.1l10.7,0l0,11.1l-10.7,0l0,-11.1zm0,11.6l10.7,0l0,1.7l-10.7,0l0,-1.7zm0,2.3l10.7,0l0,1.7l-10.7,0l0,-1.7z" class="st3"/>
   <rect id="svg_232" height="4" width="139.6" class="st3" y="497.2" x="297.7"/>
   <rect id="svg_233" height="2.1" width="24.6" class="st3" transform="matrix(-1.83697e-16,1,-1,-1.83697e-16,949.1228,73.405) " y="510.2" x="425.5"/>
   <rect id="svg_234" height="2" width="58.1" class="st3" transform="matrix(-1.83697e-16,1,-1,-1.83697e-16,1005.5258,129.8605) " y="566.7" x="408.8"/>
   <path id="svg_235" d="m434.9,609.7l0,0l-11.2,0l0,0l-0.3,0l0,4.7l-28.8,0l0,0l-0.5,0l0,12.2l0.2,0l0,0l29.1,0l0,0l0.5,0l0,0l10.7,0l0,0l0.5,0l0,-16.9l-0.2,0zm-0.3,0.5l0,1.7l-10.7,0l0,-1.7l10.7,0zm-10.7,2.3l10.7,0l0,1.9l-10.7,0l0,-1.9zm-22.5,2.5l2.7,0l0,11l-2.7,0l0,-11zm-0.6,11l-2.7,0l0,-11l2.7,0l0,11zm3.8,-11l2.7,0l0,11l-2.7,0l0,-11zm3.2,0l2.7,0l0,11l-2.7,0l0,-11zm3.2,0l2.7,0l0,11l-2.7,0l0,-11zm3.2,0l2.7,0l0,11l-2.7,0l0,-11zm3.2,0l2.7,0l0,11l-2.7,0l0,-11zm-19.8,0l0,11l-3,0l0,-11l3,0zm23.1,11l0,-11l2.7,0l0,11l-2.7,0zm3.2,0l0,-11l10.7,0l0,11l-10.7,0z" class="st3"/>
   <rect id="svg_236" height="4" width="141.1" class="st3" y="628.6" x="297.8"/>
   <rect id="svg_237" height="2.1" width="45.5" class="st3" transform="matrix(-1.83697e-16,1,-1,-1.83697e-16,1068.7283,193.2569) " y="630" x="415"/>
   <rect id="svg_238" height="2.1" width="67.4" class="st3" transform="matrix(-1.83697e-16,1,-1,-1.83697e-16,1140.2316,264.2526) " y="701.2" x="404.3"/>
   <polyline id="svg_239" points="302.1,626.4 394.3,626.4 394.3,503.4 302.1,503.4 302.1,626.4  " class="st2"/>
   <rect id="svg_240" height="4" width="140.5" class="st3" y="906.2" x="296.5"/>
   <rect id="svg_241" height="26.2" width="2.1" class="st3" y="406" x="436.9"/>
   <rect id="svg_242" height="2.1" width="49.6" class="st3" transform="matrix(6.123234e-17,-1,1,6.123234e-17,68.3913,808.006) " y="368.7" x="413.4"/>
   <rect id="svg_243" height="4" width="141.4" class="st3" y="365.2" x="296.2"/>
   <path id="svg_244" d="m434.8,371.3l-0.3,0l0,0l-40.5,0l0,0.5l3.3,0l0,11.1l-3.4,0l0,0.5l29.1,0l0,4.6l0.3,0l0,0l11.2,0l0,0l0.3,0l0,-16.7zm-34.3,11.6l-2.7,0l0,-11.1l2.7,0l0,11.1zm3.2,0l-2.7,0l0,-11.1l2.7,0l0,11.1zm3.2,0l-2.7,0l0,-11.1l2.7,0l0,11.1zm3.2,0l-2.7,0l0,-11.1l2.7,0l0,11.1zm3.2,0l-2.7,0l0,-11.1l2.7,0l0,11.1zm3.2,0l-2.7,0l0,-11.1l2.7,0l0,11.1zm3.3,0l-2.7,0l0,-11.1l2.7,0l0,11.1zm3.2,0l-2.7,0l0,-11.1l2.7,0l0,11.1zm0.5,-11.1l10.7,0l0,11.1l-10.7,0l0,-11.1zm0,11.6l10.7,0l0,1.7l-10.7,0l0,-1.7zm0,2.3l10.7,0l0,1.7l-10.7,0l0,-1.7z" class="st3"/>
   <path id="svg_245" d="m397.9,495l16.9,0l0,-0.5l0,0l0,-10.7l0,0l0,-0.5l0,0l0,-29.1l0,0l0,-0.2l-12.2,0l0,0.5l0,0l0,28.8l-4.7,0l0,0.3l0,0l0,11.2l0,0l0,0.2zm0.5,-11.2l1.7,0l0,10.7l-1.7,0l0,-10.7zm4.2,0l0,10.7l-1.9,0l0,-10.7l1.9,0zm11.6,-22.5l0,2.7l-11.1,0l0,-2.7l11.1,0zm-11.1,-0.6l0,-2.7l11.1,0l0,2.7l-11.1,0zm11.1,3.8l0,2.7l-11.1,0l0,-2.7l11.1,0zm0,3.2l0,2.7l-11.1,0l0,-2.7l11.1,0zm0,3.2l0,2.7l-11.1,0l0,-2.7l11.1,0zm0,3.2l0,2.7l-11.1,0l0,-2.7l11.1,0zm0,3.2l0,2.7l-11.1,0l0,-2.7l11.1,0zm-11.1,-22.8l11.1,0l0,3l-11.1,0l0,-3zm11.1,28.8l-11.1,0l0,-2.7l11.1,0l0,2.7zm0,11.2l-11.1,0l0,-10.7l11.1,0l0,10.7z" class="st3"/>
   <polyline id="svg_246" points="301.7,494.5 393.9,494.5 393.9,371.6 301.7,371.6 301.7,494.5  " class="st2"/>
   <rect id="svg_247" height="1.8" width="48.3" class="st3" transform="matrix(6.123234e-17,-1,1,6.123234e-17,131.5255,744.4802) " y="305.6" x="413.9"/>
   <path id="svg_248" d="m434.5,346.3l0,0l-11.2,0l0,0l-0.3,0l0,4.7l-28.8,0l0,0l-0.5,0l0,12.2l0.2,0l0,0l29.1,0l0,0l0.5,0l0,0l10.7,0l0,0l0.5,0l0,-16.9l-0.2,0zm-0.3,0.5l0,1.7l-10.7,0l0,-1.7l10.7,0zm-10.7,2.3l10.7,0l0,1.9l-10.7,0l0,-1.9zm-22.5,2.5l2.7,0l0,11.1l-2.7,0l0,-11.1zm-0.6,11l-2.7,0l0,-11.1l2.7,0l0,11.1zm3.8,-11l2.7,0l0,11.1l-2.7,0l0,-11.1zm3.2,0l2.7,0l0,11.1l-2.7,0l0,-11.1zm3.2,0l2.7,0l0,11.1l-2.7,0l0,-11.1zm3.2,0l2.7,0l0,11.1l-2.7,0l0,-11.1zm3.2,0l2.7,0l0,11.1l-2.7,0l0,-11.1zm-19.8,0l0,11.1l-3,0l0,-11.1l3,0zm23.1,11l0,-11.1l2.7,0l0,11.1l-2.7,0zm3.2,0l0,-11.1l10.7,0l0,11.1l-10.7,0z" class="st3"/>
   <polyline id="svg_249" points="301.7,363 393.9,363 393.9,237.3 301.7,237.3 301.7,363  " class="st2"/>
   <rect id="svg_250" height="4.7" width="9.3" class="st3" transform="matrix(6.123234e-17,-1,1,6.123234e-17,157.5879,715.5607) " y="276.6" x="431.9"/>
   <rect id="svg_251" height="4.7" width="38.5" class="st3" y="278.9" x="400.4"/>
   <rect id="svg_252" height="4.7" width="28.9" class="st3" transform="matrix(6.123234e-17,-1,1,6.123234e-17,133.6545,671.961) " y="266.8" x="388.3"/>
   <rect id="svg_253" height="4.6" width="37.6" class="st3" y="254.7" x="401.5"/>
   <rect id="svg_254" height="4.6" width="9.1" class="st3" transform="matrix(6.123234e-17,-1,1,6.123234e-17,177.6111,696.0516) " y="256.9" x="432.3"/>
   <rect id="svg_255" height="4" width="861.1" class="st3" transform="matrix(6.123234e-17,-1,1,6.123234e-17,-124.8705,1255.8295) " y="688.4" x="134.9"/>
   <rect id="svg_256" height="4" width="79.3" class="st3" transform="matrix(6.123234e-17,-1,1,6.123234e-17,-783.6921,1379.2919) " y="1079.5" x="258.2"/>
   <rect id="svg_257" height="4" width="271.6" class="st3" y="1117.3" x="295.8"/>
   <rect id="svg_258" height="4.1" width="10.3" class="st3" transform="matrix(-1.83697e-16,1,-1,-1.83697e-16,675.4891,-203.1906) " y="234.1" x="434.2"/>
   <path id="svg_259" d="m434.8,635.3l-0.3,0l0,0l-40.5,0l0,0.5l3.3,0l0,11.1l-3.4,0l0,0.5l29.1,0l0,4.6l0.3,0l0,0l11.2,0l0,0l0.3,0l0,-16.7zm-34.3,11.6l-2.7,0l0,-11.1l2.7,0l0,11.1zm3.2,0l-2.7,0l0,-11.1l2.7,0l0,11.1zm3.2,0l-2.7,0l0,-11.1l2.7,0l0,11.1zm3.2,0l-2.7,0l0,-11.1l2.7,0l0,11.1zm3.2,0l-2.7,0l0,-11.1l2.7,0l0,11.1zm3.2,0l-2.7,0l0,-11.1l2.7,0l0,11.1zm3.3,0l-2.7,0l0,-11.1l2.7,0l0,11.1zm3.2,0l-2.7,0l0,-11.1l2.7,0l0,11.1zm0.5,-11.1l10.7,0l0,11.1l-10.7,0l0,-11.1zm0,11.6l10.7,0l0,1.7l-10.7,0l0,-1.7zm0,2.3l10.7,0l0,1.7l-10.7,0l0,-1.7z" class="st3"/>
   <rect id="svg_260" height="4" width="142.6" class="st3" y="767.6" x="296.4"/>
   <polyline id="svg_261" points="540,300.5 565.5,300.5 565.5,240.9 540,240.9 540,300.5  " class="st2"/>
   <path id="svg_262" d="m508.5,257.8l0,27l31.6,0l0,-27l-31.6,0zm7.2,0.5l2.9,0l0,26l-2.9,0l0,-26zm-0.5,25.9l-2.9,0l0,-26l2.9,0l0,26zm4,-25.9l2.9,0l0,26l-2.9,0l0,-26zm3.4,0l2.9,0l0,26l-2.9,0l0,-26zm3.5,0l2.9,0l0,26l-2.9,0l0,-26zm3.5,0l2.9,0l0,26l-2.9,0l0,-26zm3.4,0l2.9,0l0,26l-2.9,0l0,-26zm-24,0l2.7,0l0,26l-2.7,0l0,-26zm30.5,25.9l-3.1,0l0,-26l3.1,0l0,26z" class="st3"/>
   <polyline id="svg_263" points="337.2,1043 297.8,1043 297.8,1118.5 337.2,1118.5 337.2,1043  " class="st2"/>
   <path id="svg_264" d="m368.6,1096.5l0,-32.8l-31.6,0l0,32.8l31.6,0zm-7.3,-0.7l-2.9,0l0,-31.5l2.9,0l0,31.5zm0.5,-31.5l2.9,0l0,31.5l-2.9,0l0,-31.5zm-4,31.5l-2.9,0l0,-31.5l2.9,0l0,31.5zm-3.4,0l-2.9,0l0,-31.5l2.9,0l0,31.5zm-3.5,0l-2.9,0l0,-31.5l2.9,0l0,31.5zm-3.4,0l-2.9,0l0,-31.5l2.9,0l0,31.5zm-3.5,0l-2.9,0l0,-31.5l2.9,0l0,31.5zm24,0l-2.7,0l0,-31.5l2.7,0l0,31.5zm-30.5,-31.5l3.1,0l0,31.5l-3.1,0l0,-31.5z" class="st3"/>
   <rect id="svg_265" height="14.9" width="25" class="st4" y="262" x="407.4"/>
   <text id="svg_266" class="st6 st7" transform="matrix(1,0,0,1,337.7205,303.9492) ">306</text>
   <text id="svg_267" class="st6 st7" transform="matrix(1,0,0,1,337.7205,437.0693) ">305</text>
   <text id="svg_268" class="st6 st7" transform="matrix(1,0,0,1,337.7209,567.1782) ">304</text>
   <text id="svg_269" class="st6 st7" transform="matrix(1,0,0,1,337.7205,706.4897) ">303</text>
   <path id="svg_278" d="m490.8,698.8l-16.9,0l0,0.5l0,0l0,9.8l0,0l0,0.5l0,0l0,26.7l0,0l0,0.2l12.1,0l0,-0.5l0,0l0,-26.4l4.7,0l0,-0.2l0,0l0,-10.3l0,0l0,-0.3l0.1,0zm-0.6,10.3l-1.7,0l0,-9.8l1.7,0l0,9.8zm-4.2,0l0,-9.8l1.9,0l0,9.8l-1.9,0zm-11.6,20.7l0,-2.5l11.1,0l0,2.5l-11.1,0zm11.1,0.5l0,2.5l-11.1,0l0,-2.5l11.1,0zm-11.1,-3.5l0,-2.4l11.1,0l0,2.4l-11.1,0zm0,-2.9l0,-2.5l11.1,0l0,2.5l-11.1,0zm0,-2.9l0,-2.5l11.1,0l0,2.5l-11.1,0zm0,-3l0,-2.5l11.1,0l0,2.5l-11.1,0zm0,-2.9l0,-2.5l11.1,0l0,2.5l-11.1,0zm11.1,20.9l-11.1,0l0,-2.8l11.1,0l0,2.8zm-11.1,-26.4l11.1,0l0,2.5l-11.1,0l0,-2.5zm0,-10.3l11.1,0l0,9.8l-11.1,0l0,-9.8z" class="st3"/>
   <path id="svg_279" d="m491.1,845.9l0,0l0,-10.7l0,0l0,-0.2l-4.7,0l0,-27.3l0,0l0,-0.5l-12.2,0l0,0.2l0,0l0,27.6l0,0l0,0.5l0,0l0,10.2l0,0l0,0.5l16.9,0l0,-0.3zm-0.5,-0.3l-1.7,0l0,-10.2l1.7,0l0,10.2zm-2.3,-10.1l0,10.2l-1.9,0l0,-10.2l1.9,0zm-2.4,-21.4l0,2.5l-11.1,0l0,-2.5l11.1,0zm-11.1,-0.5l0,-2.6l11.1,0l0,2.5l-11.1,0l0,0.1zm11.1,3.5l0,2.5l-11.1,0l0,-2.5l11.1,0zm0,3.1l0,2.5l-11.1,0l0,-2.5l11.1,0zm0,3l0,2.5l-11.1,0l0,-2.5l11.1,0zm0,3.1l0,2.5l-11.1,0l0,-2.5l11.1,0zm0,3l0,2.6l-11.1,0l0,-2.6l11.1,0zm0,-18.8l-11.1,0l0,-2.9l11.1,0l0,2.9zm-11.1,21.9l11.1,0l0,2.5l-11.1,0l0,-2.5zm0,3.1l11.1,0l0,10.2l-11.1,0l0,-10.2z" class="st3"/>
   <polyline id="svg_280" points="498.2,845.6 561.1,845.6 561.1,698.8 498.2,698.8 498.2,845.6  " class="st2"/>
   <text id="svg_281" class="st6 st7" transform="matrix(1,0,0,1,513.1379,776.8702) ">318</text>
   <path id="svg_282" d="m508.5,285.8l0,14.2l31.6,0l0,-14.1l-31.6,0l0,-0.1zm7.2,0.3l2.9,0l0,13.6l-2.9,0l0,-13.6zm-0.5,13.6l-2.9,0l0,-13.6l2.9,0l0,13.6zm4,-13.6l2.9,0l0,13.6l-2.9,0l0,-13.6zm3.4,0l2.9,0l0,13.6l-2.9,0l0,-13.6zm3.5,0l2.9,0l0,13.6l-2.9,0l0,-13.6zm3.5,0l2.9,0l0,13.6l-2.9,0l0,-13.6zm3.4,0l2.9,0l0,13.6l-2.9,0l0,-13.6zm-24,0l2.7,0l0,13.6l-2.7,0l0,-13.6zm30.5,13.6l-3.1,0l0,-13.6l3.1,0l0,13.6z" class="st3"/>
   <path id="svg_283" d="m508.5,241.3l0,15.4l31.6,0l0,-15.4l-31.6,0zm7.2,0.3l2.9,0l0,14.8l-2.9,0l0,-14.8zm-0.5,14.8l-2.9,0l0,-14.8l2.9,0l0,14.8zm4,-14.8l2.9,0l0,14.8l-2.9,0l0,-14.8zm3.4,0l2.9,0l0,14.8l-2.9,0l0,-14.8zm3.5,0l2.9,0l0,14.8l-2.9,0l0,-14.8zm3.5,0l2.9,0l0,14.8l-2.9,0l0,-14.8zm3.4,0l2.9,0l0,14.8l-2.9,0l0,-14.8zm-24,0l2.7,0l0,14.8l-2.7,0l0,-14.8zm30.5,14.8l-3.1,0l0,-14.8l3.1,0l0,14.8z" class="st3"/>
   <path id="svg_284" d="m492.4,433.9c-1.3,-1.2 -2.6,-2.3 -4,-3.3l-1,1.8c0.7,0.5 1.3,1 2,1.6c0.7,0.6 1.4,1.2 2.1,1.9l2.9,0c-0.8,-0.8 -1.4,-1.4 -2,-2zm-22.5,-11.3l0,2.1c0.6,0.1 1.3,0.3 1.9,0.4c2.1,0.5 4.1,1.1 6,1.9l1,-1.8c-2.3,-0.9 -4.6,-1.7 -7,-2.2c-0.6,-0.2 -1.2,-0.3 -1.9,-0.4zm16.9,75.3c-4.3,3.1 -9.3,5.4 -14.6,6.7c-0.6,0.1 -1.2,0.3 -1.8,0.4c-2.5,0.5 -5.1,0.7 -7.7,0.7c-1.3,0 -2.7,-0.1 -4,-0.2l0,1.9c1.3,0.1 2.6,0.2 4,0.2c2.6,0 5.2,-0.2 7.7,-0.7c0.6,-0.1 1.2,-0.2 1.8,-0.4c5.9,-1.3 11.4,-3.9 16,-7.3l-1.4,-1.3zm16.2,-26.3c-0.1,0.6 -0.2,1.2 -0.3,1.8c-1.1,5.7 -3.5,11.1 -6.9,15.6l1.4,1.4c3.7,-5 6.3,-10.8 7.5,-17c0.1,-0.6 0.2,-1.2 0.3,-1.8l-2,0zm-81.2,-6.2c0,-13 6,-24.5 15.2,-31.9c0.6,-0.5 1.3,-1 2,-1.5l0,-2.3c-0.7,0.5 -1.4,0.9 -2,1.4c-10.3,7.6 -17.1,20.2 -17.1,34.3c0,18.6 11.7,34.4 27.9,40l0,-2c-15.2,-5.5 -26,-20.5 -26,-38z" class="st3"/>
   <path id="svg_285" d="m434.2,748.4l0,0l-11.2,0l0,0l-0.3,0l0,4.7l-28.7,0l0,0l-0.5,0l0,12.2l0.2,0l0,0l29.1,0l0,0l0.5,0l0,0l10.7,0l0,0l0.5,0l0,-16.9l-0.3,0zm-0.3,0.5l0,1.7l-10.7,0l0,-1.7l10.7,0zm-10.6,2.3l10.7,0l0,1.9l-10.7,0l0,-1.9zm-22.6,2.5l2.7,0l0,11.1l-2.7,0l0,-11.1zm-0.5,11l-2.7,0l0,-11.1l2.7,0l0,11.1zm3.7,-11l2.7,0l0,11.1l-2.7,0l0,-11.1zm3.2,0l2.7,0l0,11.1l-2.7,0l0,-11.1zm3.3,0l2.7,0l0,11.1l-2.7,0l0,-11.1zm3.2,0l2.7,0l0,11.1l-2.7,0l0,-11.1zm3.2,0l2.7,0l0,11.1l-2.7,0l0,-11.1zm-19.8,0l0,11.1l-3,0l0,-11.1l3,0zm23,11l0,-11.1l2.7,0l0,11.1l-2.7,0zm3.3,0l0,-11.1l10.7,0l0,11.1l-10.7,0z" class="st3"/>
   <polyline id="svg_286" points="301.5,765.1 393.6,765.1 393.6,635.3 301.5,635.3 301.5,765.1  " class="st2"/>
   <rect id="svg_287" height="2.1" width="67.4" class="st3" transform="matrix(-1.83697e-16,1,-1,-1.83697e-16,1278.8652,402.8863) " y="839.8" x="404.3"/>
   <path id="svg_288" d="m434.8,773.9l-0.3,0l0,0l-40.5,0l0,0.5l3.3,0l0,11.1l-3.4,0l0,0.5l29.1,0l0,4.6l0.3,0l0,0l11.2,0l0,0l0.3,0l0,-16.7zm-34.3,11.6l-2.7,0l0,-11.1l2.7,0l0,11.1zm3.2,0l-2.7,0l0,-11.1l2.7,0l0,11.1zm3.2,0l-2.7,0l0,-11.1l2.7,0l0,11.1zm3.2,0l-2.7,0l0,-11.1l2.7,0l0,11.1zm3.2,0l-2.7,0l0,-11.1l2.7,0l0,11.1zm3.2,0l-2.7,0l0,-11.1l2.7,0l0,11.1zm3.3,0l-2.7,0l0,-11.1l2.7,0l0,11.1zm3.2,0l-2.7,0l0,-11.1l2.7,0l0,11.1zm0.5,-11.1l10.7,0l0,11.1l-10.7,0l0,-11.1zm0,11.7l10.7,0l0,1.7l-10.7,0l0,-1.7zm0,2.3l10.7,0l0,1.7l-10.7,0l0,-1.7z" class="st3"/>
   <text id="svg_289" class="st6 st7" transform="matrix(1,0,0,1,337.7205,845.1234) ">302</text>
   <path id="svg_290" d="m434.2,887l0,0l-11.2,0l0,0l-0.3,0l0,4.7l-28.7,0l0,0l-0.5,0l0,12.2l0.2,0l0,0l29.1,0l0,0l0.5,0l0,0l10.7,0l0,0l0.5,0l0,-16.9l-0.3,0zm-0.3,0.6l0,1.7l-10.7,0l0,-1.7l10.7,0zm-10.6,2.2l10.7,0l0,1.9l-10.7,0l0,-1.9zm-22.6,2.5l2.7,0l0,11.1l-2.7,0l0,-11.1zm-0.5,11.1l-2.7,0l0,-11.1l2.7,0l0,11.1zm3.7,-11.1l2.7,0l0,11.1l-2.7,0l0,-11.1zm3.2,0l2.7,0l0,11.1l-2.7,0l0,-11.1zm3.3,0l2.7,0l0,11.1l-2.7,0l0,-11.1zm3.2,0l2.7,0l0,11.1l-2.7,0l0,-11.1zm3.2,0l2.7,0l0,11.1l-2.7,0l0,-11.1zm-19.8,0l0,11.1l-3,0l0,-11.1l3,0zm23,11.1l0,-11.1l2.7,0l0,11.1l-2.7,0zm3.3,0l0,-11.1l10.7,0l0,11.1l-10.7,0z" class="st3"/>
   <polyline id="svg_291" points="301.5,903.7 393.6,903.7 393.6,773.9 301.5,773.9 301.5,903.7  " class="st2"/>
   <rect id="svg_292" height="2.1" width="66.5" class="st3" transform="matrix(-1.83697e-16,1,-1,-1.83697e-16,1416.3652,540.3862) " y="977.3" x="404.8"/>
   <path id="svg_293" d="m434.8,912.4l-0.3,0l0,0l-40.5,0l0,0.5l3.3,0l0,10.9l-3.4,0l0,0.5l29.1,0l0,4.5l0.3,0l0,0l11.2,0l0,0l0.3,0l0,-16.4zm-34.3,11.4l-2.7,0l0,-10.9l2.7,0l0,10.9zm3.2,0l-2.7,0l0,-10.9l2.7,0l0,10.9zm3.2,0l-2.7,0l0,-10.9l2.7,0l0,10.9zm3.2,0l-2.7,0l0,-10.9l2.7,0l0,10.9zm3.2,0l-2.7,0l0,-10.9l2.7,0l0,10.9zm3.2,0l-2.7,0l0,-10.9l2.7,0l0,10.9zm3.3,0l-2.7,0l0,-10.9l2.7,0l0,10.9zm3.2,0l-2.7,0l0,-10.9l2.7,0l0,10.9zm0.5,-10.9l10.7,0l0,10.9l-10.7,0l0,-10.9zm0,11.4l10.7,0l0,1.7l-10.7,0l0,-1.7zm0,2.3l10.7,0l0,1.7l-10.7,0l0,-1.7z" class="st3"/>
   <text id="svg_294" class="st6 st10" transform="matrix(1.0141,0,0,1,337.7207,982.5645) ">301</text>
   <path id="svg_295" d="m434.2,1023.9l0,0l-11.2,0l0,0l-0.3,0l0,4.7l-28.7,0l0,0l-0.5,0l0,12l0.2,0l0,0l29.1,0l0,0l0.5,0l0,0l10.7,0l0,0l0.5,0l0,-16.7l-0.3,0zm-0.3,0.5l0,1.7l-10.7,0l0,-1.7l10.7,0zm-10.6,2.3l10.7,0l0,1.9l-10.7,0l0,-1.9zm-22.6,2.4l2.7,0l0,10.9l-2.7,0l0,-10.9zm-0.5,10.9l-2.7,0l0,-10.9l2.7,0l0,10.9zm3.7,-10.9l2.7,0l0,10.9l-2.7,0l0,-10.9zm3.2,0l2.7,0l0,10.9l-2.7,0l0,-10.9zm3.3,0l2.7,0l0,10.9l-2.7,0l0,-10.9zm3.2,0l2.7,0l0,10.9l-2.7,0l0,-10.9zm3.2,0l2.7,0l0,10.9l-2.7,0l0,-10.9zm-19.8,0l0,10.9l-3,0l0,-10.9l3,0zm23,10.9l0,-10.9l2.7,0l0,10.9l-2.7,0zm3.3,0l0,-10.9l10.7,0l0,10.9l-10.7,0z" class="st3"/>
   <polyline id="svg_296" points="301.5,1040.3 393.6,1040.3 393.6,912.3 301.5,912.3 301.5,1040.3  " class="st2"/>
   <path id="svg_297" d="m336.9,1043.4l0,16.8l31.6,0l0,-16.8l-31.6,0zm7.3,0.3l2.9,0l0,16.1l-2.9,0l0,-16.1zm-0.5,16.1l-2.9,0l0,-16.1l2.9,0l0,16.1zm4,-16.1l2.9,0l0,16.1l-2.9,0l0,-16.1zm3.4,0l2.9,0l0,16.1l-2.9,0l0,-16.1zm3.5,0l2.9,0l0,16.1l-2.9,0l0,-16.1zm3.4,0l2.9,0l0,16.1l-2.9,0l0,-16.1zm3.5,0l2.9,0l0,16.1l-2.9,0l0,-16.1zm-24,0l2.7,0l0,16.1l-2.7,0l0,-16.1zm30.5,16.1l-3,0l0,-16.1l3.1,0l0,16.1l-0.1,0z" class="st3"/>
   <path id="svg_298" d="m337.1,1100l0,17.3l31.6,0l0,-17.3l-31.6,0zm7.3,0.3l2.9,0l0,16.6l-2.9,0l0,-16.6zm-0.6,16.6l-2.9,0l0,-16.6l2.9,0l0,16.6zm4,-16.6l2.9,0l0,16.6l-2.9,0l0,-16.6zm3.5,0l2.9,0l0,16.6l-2.9,0l0,-16.6zm3.5,0l2.9,0l0,16.6l-2.9,0l0,-16.6zm3.4,0l2.9,0l0,16.6l-2.9,0l0,-16.6zm3.5,0l2.9,0l0,16.6l-2.9,0l0,-16.6zm-24.1,0l2.7,0l0,16.6l-2.7,0l0,-16.6zm30.6,16.6l-3.1,0l0,-16.6l3.1,0l0,16.6z" class="st3"/>
   <text xml:space="preserve" text-anchor="start" font-family="null" font-size="null" id="svg_374" y="845.230476" x="357.153846" fill-opacity="null" stroke-opacity="null" stroke-width="null" stroke="null" fill="null">A</text>
   <text xml:space="preserve" text-anchor="start" font-family="null" font-size="null" id="svg_375" y="982.153505" x="356.384619" fill-opacity="null" stroke-opacity="null" stroke-width="null" stroke="null" fill="null">A</text>
   <text xml:space="preserve" text-anchor="start" font-family="null" font-size="null" id="svg_376" y="776.461269" x="533.307625" fill-opacity="null" stroke-opacity="null" stroke-width="null" stroke="null" fill="null">A</text>
   <text xml:space="preserve" text-anchor="start" font-family="null" font-size="null" id="svg_378" y="706.461294" x="356.384602" fill-opacity="null" stroke-opacity="null" stroke-width="null" stroke="null" fill="null">A</text>
   <text xml:space="preserve" text-anchor="start" font-family="null" font-size="null" id="svg_379" y="437.230617" x="356.384604" fill-opacity="null" stroke-opacity="null" stroke-width="null" stroke="null" fill="null">A</text>
   <text xml:space="preserve" text-anchor="start" font-family="null" font-size="null" id="svg_380" y="304.461432" x="357.15384" fill-opacity="null" stroke-opacity="null" stroke-width="null" stroke="null" fill="null">A</text>
   <text xml:space="preserve" text-anchor="start" font-family="null" font-size="null" id="svg_381" y="565.999801" x="357.923062" fill-opacity="null" stroke-opacity="null" stroke-width="null" stroke="null" fill="null">A</text>
  </g>
  <g id="Layer_2">
   <rect id="svg_310" height="1.8" width="11.9" class="st3" transform="matrix(6.123234e-17,-1,1,6.123234e-17,162.5661,778.906) " y="307.2" x="464.8"/>
   <rect id="svg_311" height="1.8" width="35" class="st3" transform="matrix(6.123234e-17,-1,1,6.123234e-17,95.4771,846.2826) " y="374.5" x="453.4"/>
   <path id="svg_312" d="m471.8,391.7l0,31.5c-0.6,-0.2 -1.2,-0.5 -1.9,-0.6l0,-30.8l1.9,0l0,-0.1z" class="st3"/>
   <rect id="svg_313" height="1.8" width="5.6" class="st3" transform="matrix(0.7482,-0.6635,0.6635,0.7482,-117.8111,403.4504) " y="356" x="469.8"/>
   <rect id="svg_314" height="1.8" width="4.9" class="st3" transform="matrix(0.7482,-0.6635,0.6635,0.7482,-109.3711,408.5646) " y="347.4" x="481.1"/>
   <rect id="svg_315" height="1.8" width="5.6" class="st3" transform="matrix(0.78,0.6258,-0.6258,0.78,301.2036,-226.3889) " y="314.2" x="469.8"/>
   <rect id="svg_316" height="1.8" width="63.2" class="st3" transform="matrix(-1,-1.224647e-16,1.224647e-16,-1,1031.9946,672.8197) " y="335.5" x="484.4"/>
   <rect id="svg_317" height="1.8" width="42.3" class="st3" transform="matrix(6.123234e-17,-1,1,6.123234e-17,179.9252,852.0695) " y="335.1" x="494.8"/>
   <rect id="svg_318" height="4" width="97.5" class="st3" y="366.1" x="470"/>
   <rect id="svg_319" height="1.8" width="99.5" class="st3" transform="matrix(6.123234e-17,-1,1,6.123234e-17,-116.0277,1057.9723) " y="586.1" x="421.2"/>
   <rect id="svg_320" height="1.8" width="87.6" class="st3" transform="matrix(6.123234e-17,-1,1,6.123234e-17,-222.0772,1164.0219) " y="692.1" x="427.2"/>
   <rect id="svg_321" height="1.8" width="47.8" class="st3" transform="matrix(6.123234e-17,-1,1,6.123234e-17,-300.6296,1242.1656) " y="770.5" x="446.9"/>
   <rect id="svg_322" height="1.8" width="41.7" class="st3" transform="matrix(6.123234e-17,-1,1,6.123234e-17,-357.301,1299.3762) " y="827.4" x="450.2"/>
   <rect id="svg_323" height="1.8" width="93.9" class="st3" transform="matrix(-1,-1.224647e-16,1.224647e-16,-1,1034.1576,1697.0446) " y="847.6" x="470.1"/>
   <rect id="svg_324" height="1.8" width="14.4" class="st3" transform="matrix(6.123234e-17,-1,1,6.123234e-17,-379.8603,1330.1815) " y="854.1" x="468"/>
   <rect id="svg_325" height="1.8" width="17.4" class="st3" transform="matrix(-1,-1.224647e-16,1.224647e-16,-1,1048.9979,1773.2355) " y="885.7" x="515.8"/>
   <rect id="svg_326" height="1.8" width="49.8" class="st3" transform="matrix(6.123234e-17,-1,1,6.123234e-17,-526.999,1473.0066) " y="999.1" x="448.1"/>
   <rect id="svg_327" height="1.8" width="14.1" class="st3" transform="matrix(6.123234e-17,-1,1,6.123234e-17,-570.2254,1516.2329) " y="1042.3" x="465.9"/>
   <rect id="svg_328" height="1.8" width="29.9" class="st3" transform="matrix(6.123234e-17,-1,1,6.123234e-17,-680.1085,1524.9263) " y="1101.6" x="407.4"/>
   <rect id="svg_329" height="1.8" width="140.6" class="st3" transform="matrix(-1,-1.224647e-16,1.224647e-16,-1,733.4025,2085.3928) " y="1041.8" x="296.4"/>
   <rect id="svg_330" height="1.8" width="72.5" class="st3" transform="matrix(-1,-1.224647e-16,1.224647e-16,-1,1016.6922,2085.5234) " y="1041.8" x="472.1"/>
   <rect id="svg_331" height="1.8" width="77.2" class="st3" transform="matrix(6.123234e-17,-1,1,6.123234e-17,-548.2961,1614.4486) " y="1080.4" x="494.5"/>
   <rect id="svg_332" height="1.8" width="62" class="st3" transform="matrix(-1,-1.224647e-16,1.224647e-16,-1,1006.1475,2158.4846) " y="1078.3" x="472.1"/>
   <rect id="svg_333" height="1.8" width="39.5" class="st3" transform="matrix(6.123234e-17,-1,1,6.123234e-17,-576.3521,1581.3885) " y="1077.9" x="482.7"/>
   <rect id="svg_334" height="1.8" width="29.2" class="st3" transform="matrix(6.123234e-17,-1,1,6.123234e-17,-605.1531,1550.6246) " y="1077" x="458.1"/>
   <rect id="svg_335" height="1.8" width="14" class="st3" transform="matrix(6.123234e-17,-1,1,6.123234e-17,-638.5075,1583.7915) " y="1110.2" x="465.7"/>
   <rect id="svg_336" height="1.8" width="46.6" class="st3" transform="matrix(6.123234e-17,-1,1,6.123234e-17,-333.3161,1209.295) " y="770.4" x="414.7"/>
   <rect id="svg_337" height="1.8" width="97.3" class="st3" transform="matrix(-1,-1.224647e-16,1.224647e-16,-1,1037.3009,1392.2966) " y="695.2" x="470"/>
   <rect id="svg_338" height="1.8" width="97" class="st3" transform="matrix(-1,-1.224647e-16,1.224647e-16,-1,1037.9176,1130.0015) " y="564.1" x="470.4"/>
   <rect id="svg_339" height="4" width="55.4" class="st3" transform="matrix(-1.83697e-16,1,-1,-1.83697e-16,797.5505,-333.4085) " y="230.1" x="537.8"/>
   <rect id="svg_340" height="1.8" width="22.3" class="st3" y="239.9" x="470.4"/>
   <rect id="svg_341" height="1.8" width="22.2" class="st3" y="240.1" x="437.6"/>
   <rect id="svg_342" height="1.8" width="23.3" class="st3" transform="matrix(6.123234e-17,-1,1,6.123234e-17,149.101,820.928) " y="335" x="473.4"/>
   <rect id="svg_343" height="1.8" width="5.3" class="st3" transform="matrix(0.78,0.6258,-0.6258,0.78,308.6786,-231.3046) " y="322.4" x="480.6"/>
   <rect id="svg_344" height="4" width="16.3" class="st3" y="300" x="437.2"/>
   <rect id="svg_345" height="4" width="99.1" class="st3" y="300" x="467.7"/>
   <rect id="svg_346" height="1.8" width="54.9" class="st3" transform="matrix(-1.83697e-16,1,-1,-1.83697e-16,886.463,-206.9349) " y="338.8" x="519.2"/>
   <rect id="svg_347" height="1.8" width="36.2" class="st3" transform="matrix(-1.83697e-16,1,-1,-1.83697e-16,698.6835,-251.3681) " y="222.7" x="456.9"/>
   <rect id="svg_348" height="1.8" width="23.1" class="st3" transform="matrix(-1.83697e-16,1,-1,-1.83697e-16,683.0322,-193.3654) " y="243.9" x="426.6"/>
   <line id="svg_349" y2="276.5" x2="431.9" y1="262.4" x1="407.7" class="st11"/>
   <line id="svg_350" y2="262.3" x2="432.2" y1="276.8" x1="407.5" class="st11"/>
   <rect id="svg_351" height="14.9" width="25" class="st4" transform="matrix(-1.83697e-16,1,-1,-1.83697e-16,1355.5333,381.4273) " y="861" x="474.5"/>
   <line id="svg_352" y2="881" x2="480" y1="856.8" x1="494.1" class="st11"/>
   <line id="svg_353" y2="881.2" x2="494.2" y1="856.6" x1="479.7" class="st11"/>
   <rect id="svg_354" height="12.7" width="19.2" class="st4" transform="matrix(-1.83697e-16,1,-1,-1.83697e-16,1375.7285,367.775) " y="865.4" x="494.4"/>
   <line id="svg_355" y2="881" x2="498.2" y1="862.5" x1="510.2" class="st11"/>
   <line id="svg_356" y2="881.2" x2="510.3" y1="862.3" x1="498" class="st11"/>
   <rect id="svg_357" height="1.8" width="91.4" class="st3" transform="matrix(-1,-1.224647e-16,1.224647e-16,-1,1036.7168,1952.0764) " y="975.1" x="472.7"/>
   <path id="svg_358" d="m535.4,471.3l0,1.8l-32.6,0c0.1,-0.6 0.1,-1.2 0.2,-1.8l32.4,0z" class="st3"/>
   <path id="svg_359" d="m536.1,433.9l0,1.9l-43.1,0c-0.3,-0.6 -0.7,-1.3 -1.1,-1.9l44.2,0z" class="st3"/>
   <path id="svg_360" d="m471.8,504.6l0,21l-1.9,0l0,-20.6c0.7,-0.1 1.3,-0.3 1.9,-0.4z" class="st3"/>
   <rect id="svg_361" height="1.8" width="17.4" class="st3" transform="matrix(-1,-1.224647e-16,1.224647e-16,-1,1112.1111,1773.2355) " y="885.7" x="547.3"/>
   <rect id="svg_362" height="1.8" width="12.7" class="st3" transform="matrix(-1,-1.224647e-16,1.224647e-16,-1,1122.2358,2084.8186) " y="1041.5" x="554.8"/>
   <rect id="svg_363" height="1.8" width="60.4" class="st3" y="239.9" x="505.6"/>
   <rect id="svg_364" height="1.8" width="67.3" class="st3" transform="matrix(6.123234e-17,-1,1,6.123234e-17,125.1867,929.359) " y="401.2" x="493.6"/>
   <rect id="svg_365" height="1.8" width="94.6" class="st3" transform="matrix(6.123234e-17,-1,1,6.123234e-17,7.9392,1045.1674) " y="517.7" x="479.2"/>
   <path id="svg_366" d="m549.5,435.8l0,-1.9l14.3,0c0.1,0.6 0.2,1.3 0.4,1.9l-14.7,0z" class="st3"/>
   <path id="svg_367" d="m549.5,473.2l0,-1.9l15,0c0.1,0.6 0.2,1.3 0.4,1.9l-15.4,0z" class="st3"/>
   <rect id="svg_368" height="1.8" width="46.6" class="st3" transform="matrix(6.123234e-17,-1,1,6.123234e-17,-470.5663,1346.5453) " y="907.6" x="414.7"/>
   <rect id="svg_369" height="1.8" width="18.7" class="st3" transform="matrix(6.123234e-17,-1,1,6.123234e-17,-596.2651,1472.244) " y="1033.3" x="428.6"/>
   <rect id="svg_370" height="1.8" width="30.4" class="st3" transform="matrix(6.123234e-17,-1,1,6.123234e-17,-634.8533,1479.6711) " y="1056.3" x="407.2"/>
   <rect id="svg_371" height="1.8" width="30.8" class="st3" transform="matrix(-1.83697e-16,1,-1,-1.83697e-16,653.5469,-214.093) " y="218.8" x="418.4"/>
   <rect id="svg_372" height="4" width="97.5" class="st3" y="563" x="470"/>
   <rect id="svg_373" height="4" width="97.5" class="st3" y="693.2" x="470"/>
  </g>
 </g>
</svg>