<svg id="floor2" version="1.1" xmlns="http://www.w3.org/2000/svg" xmlns:xlink="http://www.w3.org/1999/xlink" x="0px" y="0px"
	 viewBox="0 0 842 1191" style="enable-background:new 0 0 842 1191;" xml:space="preserve">
 <style type="text/css">.st0{fill:#E3E4E5;}
	.st1{fill:none;stroke:#000000;stroke-width:0.12;stroke-linecap:round;stroke-linejoin:round;stroke-miterlimit:10;}
	.st2{fill:none;stroke:#939393;stroke-width:0.5;stroke-miterlimit:10;}
	.st3{fill:#939393;}
	.st4{fill:none;stroke:#939393;stroke-width:0.75;stroke-miterlimit:10;}
	.st5{font-family:'Roboto-Black';}
	.st6{font-size:13.0625px;}
	.st7{fill:none;stroke:#000000;stroke-width:1.5;stroke-miterlimit:10;}
	.st8{font-size:11px;}
	.st9{fill:none;stroke:#939393;stroke-width:2;stroke-miterlimit:10;}
	.st10{fill:#7A8487;}
	.st11{fill:#939393;stroke:#939393;stroke-width:0.5;stroke-miterlimit:10;}
	.st12{fill:none;stroke:#7A8487;stroke-miterlimit:10;}</style>

 <g>
  <title>background</title>
  <rect fill="none" id="canvas_background" height="402" width="582" y="-1" x="-1"/>
 </g>
 <g>
  <title>Layer 1</title>
  <g id="Layer_3">
   <path id="svg_1" d="m533.1,1042.7l-0.1,64.8l-71.3,-0.1l1,-16.5l-34.6,1l0.5,26.7l-131.3,0l-1.1,-76.2l0,-59.7l33.1,-0.2c0,0 32.4,-3 33.1,-36.8c0.4,-16.8 0.4,-30.3 0.4,-30.3l23.6,-2c0,0 -1.1,-23.6 14.5,-43.6c14.2,-18.2 36.2,-21 36.2,-21l0.1,-350.9l-3.9,-1.2l-0.3,-11.7l-5.8,-0.9l0,-33.9l5.8,0.3l0.4,-11.8l3.3,-1.9l0.5,-122l-0.2,-31.2l-35.5,-1.3l1.3,-24.9l34.5,-2.3l0.1,-20.7l-4.6,-1.4l0.1,-27.7l42.7,-0.7l-0.2,36.2l90.2,-0.8l-0.4,59.3l1.5,67.3l-94.5,1.5l0,480.5l43.9,-0.4l0.3,82.3c0,0 -3.6,32.8 -41.6,45.8c-3.1,1.1 -0.6,65 -0.6,65l58.9,1.4z" class="st0"/>
  </g>
  <g id="Layer_1">
   <line id="svg_2" y2="1115.7" x2="298.2" y1="1110.2" x1="298.2" class="st1"/>
   <line id="svg_3" y2="205.8" x2="436.4" y1="205.8" x1="433.3" class="st1"/>
   <line id="svg_4" y2="207" x2="562.7" y1="207" x1="436.4" class="st1"/>
   <line id="svg_5" y2="1115.7" x2="298.2" y1="1110.2" x1="298.2" class="st1"/>
   <line id="svg_6" y2="232.2" x2="434.2" y1="232.2" x1="299.7" class="st1"/>
   <line id="svg_7" y2="387.6" x2="225" y1="383.8" x1="225" class="st1"/>
   <line id="svg_8" y2="652.8" x2="438.8" y1="652.8" x1="437.3" class="st1"/>
   <line id="svg_9" y2="207" x2="436.4" y1="205.8" x1="436.4" class="st1"/>
   <line id="svg_10" y2="207.7" x2="487.8" y1="207.7" x1="436.4" class="st1"/>
   <line id="svg_11" y2="208.3" x2="562.7" y1="207.5" x1="562.1" class="st1"/>
   <line id="svg_12" y2="209.8" x2="562.7" y1="209" x1="562.1" class="st1"/>
   <line id="svg_13" y2="207.9" x2="562.7" y1="208.7" x1="562.1" class="st1"/>
   <line id="svg_14" y2="209.4" x2="562.7" y1="210.2" x1="562.1" class="st1"/>
   <line id="svg_15" y2="207.5" x2="562.1" y1="207" x1="561.6" class="st1"/>
   <line id="svg_16" y2="207.7" x2="560.6" y1="207" x1="559.9" class="st1"/>
   <line id="svg_17" y2="207.7" x2="559.2" y1="207" x1="558.4" class="st1"/>
   <line id="svg_18" y2="207.7" x2="557.6" y1="207" x1="556.7" class="st1"/>
   <line id="svg_19" y2="207.7" x2="555.9" y1="207" x1="555.4" class="st1"/>
   <line id="svg_20" y2="207.7" x2="554.5" y1="207" x1="553.7" class="st1"/>
   <line id="svg_21" y2="207.7" x2="553.1" y1="207" x1="552.3" class="st1"/>
   <line id="svg_22" y2="207.7" x2="551.5" y1="207" x1="550.6" class="st1"/>
   <line id="svg_23" y2="207.7" x2="549.8" y1="207" x1="549.2" class="st1"/>
   <line id="svg_24" y2="207.7" x2="548.4" y1="207" x1="547.6" class="st1"/>
   <line id="svg_25" y2="207.7" x2="546.7" y1="207" x1="546.1" class="st1"/>
   <line id="svg_26" y2="207.7" x2="545.4" y1="207" x1="544.4" class="st1"/>
   <line id="svg_27" y2="207.7" x2="543.7" y1="207" x1="543" class="st1"/>
   <line id="svg_28" y2="207.7" x2="542.2" y1="207" x1="541.4" class="st1"/>
   <line id="svg_29" y2="207.7" x2="540.5" y1="207" x1="540" class="st1"/>
   <line id="svg_30" y2="207.7" x2="539.1" y1="207" x1="538.3" class="st1"/>
   <line id="svg_31" y2="207.7" x2="537.5" y1="207" x1="536.9" class="st1"/>
   <line id="svg_32" y2="207.7" x2="536.1" y1="207" x1="535.3" class="st1"/>
   <line id="svg_33" y2="207.7" x2="534.4" y1="207" x1="533.9" class="st1"/>
   <line id="svg_34" y2="207.7" x2="533" y1="207" x1="532.2" class="st1"/>
   <line id="svg_35" y2="207.7" x2="531.4" y1="207" x1="530.7" class="st1"/>
   <line id="svg_36" y2="207.7" x2="529.9" y1="207" x1="529" class="st1"/>
   <line id="svg_37" y2="207.7" x2="528.3" y1="207" x1="527.7" class="st1"/>
   <line id="svg_38" y2="207.7" x2="526.8" y1="207" x1="526" class="st1"/>
   <line id="svg_39" y2="207.7" x2="525.2" y1="207" x1="524.6" class="st1"/>
   <line id="svg_40" y2="207.7" x2="523.8" y1="207" x1="522.9" class="st1"/>
   <line id="svg_41" y2="207.7" x2="522.1" y1="207" x1="521.5" class="st1"/>
   <line id="svg_42" y2="207.7" x2="520.7" y1="207" x1="519.9" class="st1"/>
   <line id="svg_43" y2="207.7" x2="519" y1="207" x1="518.2" class="st1"/>
   <line id="svg_44" y2="207.7" x2="517.7" y1="207" x1="516.8" class="st1"/>
   <line id="svg_45" y2="207.7" x2="516" y1="207" x1="515.3" class="st1"/>
   <line id="svg_46" y2="207.7" x2="514.5" y1="207" x1="513.8" class="st1"/>
   <line id="svg_47" y2="207.7" x2="512.8" y1="207" x1="512.1" class="st1"/>
   <line id="svg_48" y2="207.7" x2="511.4" y1="207" x1="510.6" class="st1"/>
   <line id="svg_49" y2="207.7" x2="509.8" y1="207" x1="508.9" class="st1"/>
   <line id="svg_50" y2="207.7" x2="508.4" y1="207" x1="507.6" class="st1"/>
   <line id="svg_51" y2="207.7" x2="506.7" y1="207" x1="505.9" class="st1"/>
   <line id="svg_52" y2="207.7" x2="505.3" y1="207" x1="504.5" class="st1"/>
   <line id="svg_53" y2="207.7" x2="503.7" y1="207" x1="502.8" class="st1"/>
   <line id="svg_54" y2="207.7" x2="502.3" y1="207" x1="501.3" class="st1"/>
   <line id="svg_55" y2="207.7" x2="500.6" y1="207" x1="499.8" class="st1"/>
   <line id="svg_56" y2="207.7" x2="499.1" y1="207" x1="498.3" class="st1"/>
   <line id="svg_57" y2="207.7" x2="497.6" y1="207" x1="496.6" class="st1"/>
   <line id="svg_58" y2="207.7" x2="496.1" y1="207" x1="495.2" class="st1"/>
   <line id="svg_59" y2="207.7" x2="494.4" y1="207" x1="493.6" class="st1"/>
   <line id="svg_60" y2="207.7" x2="493" y1="207" x1="492.2" class="st1"/>
   <line id="svg_61" y2="207.7" x2="491.3" y1="207" x1="490.5" class="st1"/>
   <line id="svg_62" y2="207.7" x2="489.7" y1="207" x1="489.1" class="st1"/>
   <line id="svg_63" y2="207.7" x2="488.3" y1="207" x1="487.5" class="st1"/>
   <line id="svg_64" y2="207.7" x2="486.8" y1="207" x1="486.1" class="st1"/>
   <line id="svg_65" y2="207.7" x2="485.1" y1="207" x1="484.4" class="st1"/>
   <line id="svg_66" y2="207.7" x2="483.6" y1="207" x1="482.9" class="st1"/>
   <line id="svg_67" y2="207.7" x2="482.1" y1="207" x1="481.2" class="st1"/>
   <line id="svg_68" y2="207.7" x2="480.7" y1="207" x1="479.8" class="st1"/>
   <line id="svg_69" y2="207.7" x2="479" y1="207" x1="478.2" class="st1"/>
   <line id="svg_70" y2="207.7" x2="477.4" y1="207" x1="476.8" class="st1"/>
   <line id="svg_71" y2="207.7" x2="476" y1="207" x1="475.1" class="st1"/>
   <line id="svg_72" y2="207.7" x2="474.3" y1="207" x1="473.7" class="st1"/>
   <line id="svg_73" y2="207.7" x2="472.9" y1="207" x1="472.1" class="st1"/>
   <line id="svg_74" y2="207.7" x2="471.2" y1="207" x1="470.6" class="st1"/>
   <line id="svg_75" y2="207.7" x2="469.7" y1="207" x1="468.9" class="st1"/>
   <line id="svg_76" y2="207.7" x2="468.2" y1="207" x1="467.5" class="st1"/>
   <line id="svg_77" y2="207.7" x2="466.7" y1="207" x1="465.9" class="st1"/>
   <line id="svg_78" y2="207.7" x2="465" y1="207" x1="464.5" class="st1"/>
   <line id="svg_79" y2="207.7" x2="463.6" y1="207" x1="462.8" class="st1"/>
   <line id="svg_80" y2="207.7" x2="462" y1="207" x1="461.4" class="st1"/>
   <line id="svg_81" y2="207.7" x2="460.6" y1="207" x1="459.7" class="st1"/>
   <line id="svg_82" y2="207.7" x2="458.9" y1="207" x1="458.4" class="st1"/>
   <line id="svg_83" y2="207.7" x2="457.5" y1="207" x1="456.7" class="st1"/>
   <line id="svg_84" y2="207.7" x2="455.9" y1="207" x1="455.2" class="st1"/>
   <line id="svg_85" y2="207.7" x2="454.4" y1="207" x1="453.5" class="st1"/>
   <line id="svg_86" y2="207.7" x2="452.8" y1="207" x1="452" class="st1"/>
   <line id="svg_87" y2="207.7" x2="451.3" y1="207" x1="450.5" class="st1"/>
   <line id="svg_88" y2="207.7" x2="449.6" y1="207" x1="449.1" class="st1"/>
   <line id="svg_89" y2="207.7" x2="448.3" y1="207" x1="447.4" class="st1"/>
   <line id="svg_90" y2="207.7" x2="446.6" y1="207" x1="445.8" class="st1"/>
   <line id="svg_91" y2="207.7" x2="445.2" y1="207" x1="444.4" class="st1"/>
   <line id="svg_92" y2="207.7" x2="443.5" y1="207" x1="443" class="st1"/>
   <line id="svg_93" y2="207.7" x2="442" y1="207" x1="441.3" class="st1"/>
   <line id="svg_94" y2="207.7" x2="440.5" y1="207" x1="439.7" class="st1"/>
   <line id="svg_95" y2="207.7" x2="439" y1="207" x1="438.3" class="st1"/>
   <line id="svg_96" y2="207.7" x2="437.3" y1="207" x1="436.8" class="st1"/>
   <line id="svg_97" y2="207" x2="437.3" y1="207.7" x1="436.6" class="st1"/>
   <line id="svg_98" y2="207" x2="438.8" y1="207.7" x1="438.1" class="st1"/>
   <line id="svg_99" y2="207" x2="440.3" y1="207.7" x1="439.6" class="st1"/>
   <line id="svg_100" y2="207" x2="442" y1="207.7" x1="441" class="st1"/>
   <line id="svg_101" y2="207" x2="443.5" y1="207.7" x1="442.7" class="st1"/>
   <line id="svg_102" y2="207" x2="444.9" y1="207.7" x1="444.3" class="st1"/>
   <line id="svg_103" y2="207" x2="446.5" y1="207.7" x1="445.8" class="st1"/>
   <line id="svg_104" y2="207" x2="448.2" y1="207.7" x1="447.4" class="st1"/>
   <line id="svg_105" y2="207" x2="449.6" y1="207.7" x1="448.8" class="st1"/>
   <line id="svg_106" y2="207" x2="451.1" y1="207.7" x1="450.4" class="st1"/>
   <line id="svg_107" y2="207" x2="452.6" y1="207.7" x1="452" class="st1"/>
   <line id="svg_108" y2="207" x2="454.3" y1="207.7" x1="453.5" class="st1"/>
   <line id="svg_109" y2="207" x2="455.8" y1="207.7" x1="455" class="st1"/>
   <line id="svg_110" y2="207" x2="457.5" y1="207.7" x1="456.5" class="st1"/>
   <line id="svg_111" y2="207" x2="458.8" y1="207.7" x1="458.1" class="st1"/>
   <line id="svg_112" y2="207" x2="460.5" y1="207.7" x1="459.7" class="st1"/>
   <line id="svg_113" y2="207" x2="462" y1="207.7" x1="461.1" class="st1"/>
   <line id="svg_114" y2="207" x2="463.6" y1="207.7" x1="462.7" class="st1"/>
   <line id="svg_115" y2="207" x2="465" y1="207.7" x1="464.2" class="st1"/>
   <line id="svg_116" y2="207" x2="466.5" y1="207.7" x1="465.8" class="st1"/>
   <line id="svg_117" y2="207" x2="468.2" y1="207.7" x1="467.5" class="st1"/>
   <line id="svg_118" y2="207" x2="469.7" y1="207.7" x1="468.8" class="st1"/>
   <line id="svg_119" y2="207" x2="471.2" y1="207.7" x1="470.4" class="st1"/>
   <line id="svg_120" y2="207" x2="472.6" y1="207.7" x1="472" class="st1"/>
   <line id="svg_121" y2="207" x2="474.3" y1="207.7" x1="473.7" class="st1"/>
   <line id="svg_122" y2="207" x2="475.9" y1="207.7" x1="475.1" class="st1"/>
   <line id="svg_123" y2="207" x2="477.4" y1="207.7" x1="476.5" class="st1"/>
   <line id="svg_124" y2="207" x2="478.7" y1="207.7" x1="478.1" class="st1"/>
   <line id="svg_125" y2="207" x2="480.4" y1="207.7" x1="479.8" class="st1"/>
   <line id="svg_126" y2="207" x2="482" y1="207.7" x1="481.2" class="st1"/>
   <line id="svg_127" y2="207" x2="483.6" y1="207.7" x1="482.7" class="st1"/>
   <line id="svg_128" y2="207" x2="485.1" y1="207.7" x1="484.2" class="st1"/>
   <line id="svg_129" y2="207" x2="486.6" y1="207.7" x1="485.9" class="st1"/>
   <line id="svg_130" y2="207" x2="488.1" y1="207.7" x1="487.4" class="st1"/>
   <line id="svg_131" y2="207" x2="489.7" y1="207.7" x1="488.8" class="st1"/>
   <line id="svg_132" y2="207" x2="491.3" y1="207.7" x1="490.4" class="st1"/>
   <line id="svg_133" y2="207" x2="492.7" y1="207.7" x1="492.1" class="st1"/>
   <line id="svg_134" y2="207" x2="494.3" y1="207.7" x1="493.5" class="st1"/>
   <line id="svg_135" y2="207" x2="495.9" y1="207.7" x1="495.2" class="st1"/>
   <line id="svg_136" y2="207" x2="497.4" y1="207.7" x1="496.5" class="st1"/>
   <line id="svg_137" y2="207" x2="498.9" y1="207.7" x1="498.2" class="st1"/>
   <line id="svg_138" y2="207" x2="500.4" y1="207.7" x1="499.6" class="st1"/>
   <line id="svg_139" y2="207" x2="502" y1="207.7" x1="501.3" class="st1"/>
   <line id="svg_140" y2="207" x2="503.6" y1="207.7" x1="502.8" class="st1"/>
   <line id="svg_141" y2="207" x2="505.3" y1="207.7" x1="504.3" class="st1"/>
   <line id="svg_142" y2="207" x2="506.6" y1="207.7" x1="505.8" class="st1"/>
   <line id="svg_143" y2="207" x2="508.1" y1="207.7" x1="507.5" class="st1"/>
   <line id="svg_144" y2="207" x2="509.7" y1="207.7" x1="508.9" class="st1"/>
   <line id="svg_145" y2="207" x2="511.4" y1="207.7" x1="510.5" class="st1"/>
   <line id="svg_146" y2="207" x2="512.8" y1="207.7" x1="512.1" class="st1"/>
   <line id="svg_147" y2="207" x2="514.3" y1="207.7" x1="513.6" class="st1"/>
   <line id="svg_148" y2="207" x2="515.8" y1="207.7" x1="515.3" class="st1"/>
   <line id="svg_149" y2="207" x2="517.5" y1="207.7" x1="516.5" class="st1"/>
   <line id="svg_150" y2="207" x2="519" y1="207.7" x1="518.2" class="st1"/>
   <line id="svg_151" y2="207" x2="520.4" y1="207.7" x1="519.8" class="st1"/>
   <line id="svg_152" y2="207" x2="522" y1="207.7" x1="521.5" class="st1"/>
   <line id="svg_153" y2="207" x2="523.7" y1="207.7" x1="522.9" class="st1"/>
   <line id="svg_154" y2="207" x2="525.1" y1="207.7" x1="524.3" class="st1"/>
   <line id="svg_155" y2="207" x2="526.6" y1="207.7" x1="525.9" class="st1"/>
   <line id="svg_156" y2="207" x2="528.1" y1="207.7" x1="527.5" class="st1"/>
   <line id="svg_157" y2="207" x2="529.8" y1="207.7" x1="529" class="st1"/>
   <line id="svg_158" y2="207" x2="531.3" y1="207.7" x1="530.5" class="st1"/>
   <line id="svg_159" y2="207" x2="533" y1="207.7" x1="532" class="st1"/>
   <line id="svg_160" y2="207" x2="534.4" y1="207.7" x1="533.6" class="st1"/>
   <line id="svg_161" y2="207" x2="536" y1="207.7" x1="535.2" class="st1"/>
   <line id="svg_162" y2="207" x2="537.4" y1="207.7" x1="536.6" class="st1"/>
   <line id="svg_163" y2="207" x2="539.1" y1="207.7" x1="538.2" class="st1"/>
   <line id="svg_164" y2="207" x2="540.5" y1="207.7" x1="539.7" class="st1"/>
   <line id="svg_165" y2="207" x2="542.1" y1="207.7" x1="541.3" class="st1"/>
   <line id="svg_166" y2="207" x2="543.5" y1="207.7" x1="543" class="st1"/>
   <line id="svg_167" y2="207" x2="545.2" y1="207.7" x1="544.4" class="st1"/>
   <line id="svg_168" y2="207" x2="546.7" y1="207.7" x1="545.9" class="st1"/>
   <line id="svg_169" y2="207" x2="548.2" y1="207.7" x1="547.5" class="st1"/>
   <line id="svg_170" y2="207" x2="549.7" y1="207.7" x1="549.2" class="st1"/>
   <line id="svg_171" y2="207" x2="551.4" y1="207.7" x1="550.6" class="st1"/>
   <line id="svg_172" y2="207" x2="552.8" y1="207.7" x1="552" class="st1"/>
   <line id="svg_173" y2="207" x2="554.5" y1="207.7" x1="553.6" class="st1"/>
   <line id="svg_174" y2="207" x2="555.8" y1="207.7" x1="555.3" class="st1"/>
   <line id="svg_175" y2="207" x2="557.5" y1="207.7" x1="556.7" class="st1"/>
   <line id="svg_176" y2="207" x2="558.9" y1="207.7" x1="558.2" class="st1"/>
   <line id="svg_177" y2="207" x2="560.6" y1="207.7" x1="559.7" class="st1"/>
   <line id="svg_178" y2="207" x2="562.1" y1="207.7" x1="561.4" class="st1"/>
   <line id="svg_179" y2="981.8" x2="299.7" y1="982" x1="299.7" class="st1"/>
   <line id="svg_180" y2="370" x2="299.7" y1="369.9" x1="299.7" class="st1"/>
   <line id="svg_181" y2="1121.1" x2="436.6" y1="1117.3" x1="432.9" class="st1"/>
   <line id="svg_182" y2="1121.1" x2="435.9" y1="1118.1" x1="432.9" class="st1"/>
   <line id="svg_183" y2="1121.1" x2="435.1" y1="1119" x1="432.9" class="st1"/>
   <line id="svg_184" y2="1121.1" x2="434.3" y1="1119.6" x1="432.9" class="st1"/>
   <line id="svg_185" y2="1121.1" x2="433.4" y1="1120.4" x1="432.9" class="st1"/>
   <line id="svg_186" y2="500.7" x2="299.8" y1="500.7" x1="299.7" class="st1"/>
   <line id="svg_187" y2="631.4" x2="299.9" y1="631.4" x1="299.7" class="st1"/>
   <line id="svg_188" y2="783.9" x2="299.9" y1="783.9" x1="299.7" class="st1"/>
   <line id="svg_189" y2="914.9" x2="310.1" y1="914.9" x1="387.8" class="st1"/>
   <line id="svg_190" y2="913.3" x2="310.1" y1="913.3" x1="386.4" class="st1"/>
   <line id="svg_191" y2="913.3" x2="302.5" y1="913.3" x1="299.7" class="st1"/>
   <line id="svg_192" y2="914.9" x2="302.5" y1="914.9" x1="299.7" class="st1"/>
   <line id="svg_193" y2="914.9" x2="301.9" y1="913.3" x1="300.6" class="st1"/>
   <line id="svg_194" y2="914.9" x2="299.7" y1="914.6" x1="299.7" class="st1"/>
   <line id="svg_195" y2="913.6" x2="302.5" y1="913.3" x1="302.3" class="st1"/>
   <line id="svg_196" y2="914.9" x2="301.4" y1="913.3" x1="299.9" class="st1"/>
   <line id="svg_197" y2="915.8" x2="364.2" y1="914.9" x1="363.3" class="st1"/>
   <line id="svg_198" y2="914.2" x2="387.3" y1="913.3" x1="386.4" class="st1"/>
   <line id="svg_199" y2="914.9" x2="387.3" y1="913.3" x1="385.6" class="st1"/>
   <line id="svg_200" y2="914.9" x2="386.5" y1="913.3" x1="384.8" class="st1"/>
   <line id="svg_201" y2="914.9" x2="385.6" y1="913.3" x1="384.2" class="st1"/>
   <line id="svg_202" y2="914.9" x2="385.1" y1="913.3" x1="383.3" class="st1"/>
   <line id="svg_203" y2="914.9" x2="384.2" y1="913.3" x1="382.6" class="st1"/>
   <line id="svg_204" y2="914.9" x2="383.4" y1="913.3" x1="381.7" class="st1"/>
   <line id="svg_205" y2="914.9" x2="382.6" y1="913.3" x1="381" class="st1"/>
   <line id="svg_206" y2="914.9" x2="382" y1="913.3" x1="380.3" class="st1"/>
   <line id="svg_207" y2="914.9" x2="381.2" y1="913.3" x1="379.5" class="st1"/>
   <line id="svg_208" y2="914.9" x2="380.4" y1="913.3" x1="378.7" class="st1"/>
   <line id="svg_209" y2="914.9" x2="379.5" y1="913.3" x1="378" class="st1"/>
   <line id="svg_210" y2="914.9" x2="378.7" y1="913.3" x1="377.1" class="st1"/>
   <line id="svg_211" y2="914.9" x2="378" y1="913.3" x1="376.5" class="st1"/>
   <line id="svg_212" y2="914.9" x2="377.2" y1="913.3" x1="375.6" class="st1"/>
   <line id="svg_213" y2="914.9" x2="376.5" y1="913.3" x1="374.9" class="st1"/>
   <line id="svg_214" y2="914.9" x2="375.6" y1="913.3" x1="374.1" class="st1"/>
   <line id="svg_215" y2="914.9" x2="375" y1="913.3" x1="373.3" class="st1"/>
   <line id="svg_216" y2="914.9" x2="374.1" y1="913.3" x1="372.5" class="st1"/>
   <line id="svg_217" y2="914.9" x2="373.3" y1="913.3" x1="371.6" class="st1"/>
   <line id="svg_218" y2="914.9" x2="372.5" y1="913.3" x1="371" class="st1"/>
   <line id="svg_219" y2="914.9" x2="371.9" y1="913.3" x1="370.3" class="st1"/>
   <line id="svg_220" y2="914.9" x2="371.1" y1="913.3" x1="369.4" class="st1"/>
   <line id="svg_221" y2="914.9" x2="370.3" y1="913.3" x1="368.8" class="st1"/>
   <line id="svg_222" y2="914.9" x2="369.4" y1="913.3" x1="368" class="st1"/>
   <line id="svg_223" y2="914.9" x2="368.9" y1="913.3" x1="367.1" class="st1"/>
   <line id="svg_224" y2="914.9" x2="368" y1="913.3" x1="366.4" class="st1"/>
   <line id="svg_225" y2="914.9" x2="367.2" y1="913.3" x1="365.5" class="st1"/>
   <line id="svg_226" y2="914.9" x2="366.4" y1="913.3" x1="364.8" class="st1"/>
   <line id="svg_227" y2="914.9" x2="365.8" y1="913.3" x1="364.1" class="st1"/>
   <line id="svg_228" y2="914.9" x2="365" y1="913.3" x1="363.3" class="st1"/>
   <line id="svg_229" y2="914.9" x2="364.1" y1="913.3" x1="362.6" class="st1"/>
   <line id="svg_230" y2="914.9" x2="363.3" y1="913.3" x1="361.6" class="st1"/>
   <line id="svg_231" y2="914.9" x2="362.6" y1="913.3" x1="360.9" class="st1"/>
   <line id="svg_232" y2="914.9" x2="361.8" y1="913.3" x1="360.4" class="st1"/>
   <line id="svg_233" y2="914.9" x2="361.1" y1="913.3" x1="359.4" class="st1"/>
   <line id="svg_234" y2="914.9" x2="360.4" y1="913.3" x1="358.7" class="st1"/>
   <line id="svg_235" y2="914.9" x2="359.6" y1="913.3" x1="357.9" class="st1"/>
   <line id="svg_236" y2="914.9" x2="358.8" y1="913.3" x1="357.1" class="st1"/>
   <line id="svg_237" y2="914.9" x2="357.9" y1="913.3" x1="356.5" class="st1"/>
   <line id="svg_238" y2="914.9" x2="357.1" y1="913.3" x1="355.4" class="st1"/>
   <line id="svg_239" y2="914.9" x2="356.5" y1="913.3" x1="354.8" class="st1"/>
   <line id="svg_240" y2="914.9" x2="355.7" y1="913.3" x1="354" class="st1"/>
   <line id="svg_241" y2="914.9" x2="354.9" y1="913.3" x1="353.2" class="st1"/>
   <line id="svg_242" y2="914.9" x2="354" y1="913.3" x1="352.6" class="st1"/>
   <line id="svg_243" y2="914.9" x2="353.5" y1="913.3" x1="351.6" class="st1"/>
   <line id="svg_244" y2="914.9" x2="352.6" y1="913.3" x1="351" class="st1"/>
   <line id="svg_245" y2="914.9" x2="351.8" y1="913.3" x1="350.3" class="st1"/>
   <line id="svg_246" y2="914.9" x2="351" y1="913.3" x1="349.4" class="st1"/>
   <line id="svg_247" y2="914.9" x2="350.3" y1="913.3" x1="348.6" class="st1"/>
   <line id="svg_248" y2="914.9" x2="349.6" y1="913.3" x1="347.9" class="st1"/>
   <line id="svg_249" y2="914.9" x2="348.8" y1="913.3" x1="347.1" class="st1"/>
   <line id="svg_250" y2="914.9" x2="347.9" y1="913.3" x1="346.4" class="st1"/>
   <line id="svg_251" y2="914.9" x2="347.3" y1="913.3" x1="345.5" class="st1"/>
   <line id="svg_252" y2="914.9" x2="346.4" y1="913.3" x1="344.9" class="st1"/>
   <line id="svg_253" y2="914.9" x2="345.6" y1="913.3" x1="343.9" class="st1"/>
   <line id="svg_254" y2="914.9" x2="344.9" y1="913.3" x1="343.3" class="st1"/>
   <line id="svg_255" y2="914.9" x2="344.2" y1="913.3" x1="342.5" class="st1"/>
   <line id="svg_256" y2="914.9" x2="343.4" y1="913.3" x1="341.7" class="st1"/>
   <line id="svg_257" y2="914.9" x2="342.5" y1="913.3" x1="340.9" class="st1"/>
   <line id="svg_258" y2="914.9" x2="341.7" y1="913.3" x1="340.3" class="st1"/>
   <line id="svg_259" y2="914.9" x2="341.2" y1="913.3" x1="339.4" class="st1"/>
   <line id="svg_260" y2="914.9" x2="340.3" y1="913.3" x1="338.7" class="st1"/>
   <line id="svg_261" y2="914.9" x2="339.5" y1="913.3" x1="337.8" class="st1"/>
   <line id="svg_262" y2="914.9" x2="338.7" y1="913.3" x1="337.1" class="st1"/>
   <line id="svg_263" y2="914.9" x2="338.1" y1="913.3" x1="336.4" class="st1"/>
   <line id="svg_264" y2="914.9" x2="337.3" y1="913.3" x1="335.6" class="st1"/>
   <line id="svg_265" y2="914.9" x2="336.4" y1="913.3" x1="334.8" class="st1"/>
   <line id="svg_266" y2="914.9" x2="335.6" y1="913.3" x1="333.9" class="st1"/>
   <line id="svg_267" y2="914.9" x2="334.8" y1="913.3" x1="333.2" class="st1"/>
   <line id="svg_268" y2="914.9" x2="334.1" y1="913.3" x1="332.4" class="st1"/>
   <line id="svg_269" y2="914.9" x2="333.4" y1="913.3" x1="331.7" class="st1"/>
   <line id="svg_270" y2="914.9" x2="332.4" y1="913.3" x1="331" class="st1"/>
   <line id="svg_271" y2="914.9" x2="331.9" y1="913.3" x1="330.2" class="st1"/>
   <line id="svg_272" y2="914.9" x2="331.1" y1="913.3" x1="329.4" class="st1"/>
   <line id="svg_273" y2="914.9" x2="330.2" y1="913.3" x1="328.7" class="st1"/>
   <line id="svg_274" y2="914.9" x2="329.4" y1="913.3" x1="327.7" class="st1"/>
   <line id="svg_275" y2="914.9" x2="328.7" y1="913.3" x1="327.1" class="st1"/>
   <line id="svg_276" y2="914.9" x2="328" y1="913.3" x1="326.3" class="st1"/>
   <line id="svg_277" y2="914.9" x2="327.2" y1="913.3" x1="325.5" class="st1"/>
   <line id="svg_278" y2="914.9" x2="326.3" y1="913.3" x1="324.9" class="st1"/>
   <line id="svg_279" y2="914.9" x2="325.8" y1="913.3" x1="323.8" class="st1"/>
   <line id="svg_280" y2="914.9" x2="324.9" y1="913.3" x1="323.3" class="st1"/>
   <line id="svg_281" y2="914.9" x2="324.1" y1="913.3" x1="322.4" class="st1"/>
   <line id="svg_282" y2="914.9" x2="323.3" y1="913.3" x1="321.6" class="st1"/>
   <line id="svg_283" y2="914.9" x2="322.5" y1="913.3" x1="320.9" class="st1"/>
   <line id="svg_284" y2="914.9" x2="321.9" y1="913.3" x1="320.2" class="st1"/>
   <line id="svg_285" y2="914.9" x2="321.1" y1="913.3" x1="319.4" class="st1"/>
   <line id="svg_286" y2="914.9" x2="320.2" y1="913.3" x1="318.7" class="st1"/>
   <line id="svg_287" y2="914.9" x2="319.6" y1="913.3" x1="317.7" class="st1"/>
   <line id="svg_288" y2="914.9" x2="318.7" y1="913.3" x1="317.2" class="st1"/>
   <line id="svg_289" y2="914.9" x2="317.9" y1="913.3" x1="316.2" class="st1"/>
   <line id="svg_290" y2="914.9" x2="317.2" y1="913.3" x1="315.5" class="st1"/>
   <line id="svg_291" y2="914.9" x2="316.2" y1="913.3" x1="314.8" class="st1"/>
   <line id="svg_292" y2="914.9" x2="315.7" y1="913.3" x1="314" class="st1"/>
   <line id="svg_293" y2="914.9" x2="314.8" y1="913.3" x1="313.2" class="st1"/>
   <line id="svg_294" y2="914.9" x2="314" y1="913.3" x1="312.3" class="st1"/>
   <line id="svg_295" y2="914.9" x2="313.2" y1="913.3" x1="311.5" class="st1"/>
   <line id="svg_296" y2="914.9" x2="312.6" y1="913.3" x1="311" class="st1"/>
   <line id="svg_297" y2="914.9" x2="311.8" y1="913.3" x1="310.1" class="st1"/>
   <line id="svg_298" y2="914.9" x2="311" y1="914" x1="310.1" class="st1"/>
   <line id="svg_299" y2="914.9" x2="310.2" y1="914.9" x1="310.1" class="st1"/>
   <line id="svg_300" y2="846.2" x2="437.5" y1="846.2" x1="437.3" class="st1"/>
   <line id="svg_301" y2="914.1" x2="388.1" y1="912.7" x1="386.5" class="st1"/>
   <line id="svg_302" y2="914.9" x2="387.8" y1="913.3" x1="386.4" class="st1"/>
   <line id="svg_303" y2="451" x2="434.7" y1="437.1" x1="434.7" class="st1"/>
   <line id="svg_304" y2="485.4" x2="433" y1="497.7" x1="433" class="st1"/>
   <line id="svg_305" y2="483.7" x2="434.7" y1="497.7" x1="434.7" class="st1"/>
   <line id="svg_306" y2="449.5" x2="427.7" y1="449.5" x1="433" class="st1"/>
   <line id="svg_307" y2="485.4" x2="427.7" y1="485.4" x1="433" class="st1"/>
   <polyline id="svg_308" points="429.4,483.7 434.7,483.7 434.7,497.7  " class="st1"/>
   <line id="svg_309" y2="207.7" x2="562.1" y1="207.7" x1="489.5" class="st1"/>
   <line id="svg_310" y2="979.9" x2="299.7" y1="979.9" x1="299.5" class="st1"/>
   <line id="svg_311" y2="449.5" x2="427.7" y1="456.5" x1="427.7" class="st1"/>
   <line id="svg_312" y2="483.9" x2="434.7" y1="483.7" x1="434.3" class="st1"/>
   <line id="svg_313" y2="484.9" x2="434.7" y1="483.7" x1="433.5" class="st1"/>
   <line id="svg_314" y2="485.4" x2="434.7" y1="483.7" x1="432.9" class="st1"/>
   <line id="svg_315" y2="486.3" x2="434.7" y1="483.7" x1="432.1" class="st1"/>
   <line id="svg_316" y2="487.1" x2="434.7" y1="485.4" x1="433" class="st1"/>
   <line id="svg_317" y2="485.4" x2="432.9" y1="483.7" x1="431.3" class="st1"/>
   <line id="svg_318" y2="487.9" x2="434.7" y1="486.2" x1="433" class="st1"/>
   <line id="svg_319" y2="485.4" x2="432.4" y1="483.7" x1="430.7" class="st1"/>
   <line id="svg_320" y2="488.5" x2="434.7" y1="487" x1="433" class="st1"/>
   <line id="svg_321" y2="485.4" x2="431.6" y1="483.7" x1="429.9" class="st1"/>
   <line id="svg_322" y2="489.3" x2="434.7" y1="487.6" x1="433" class="st1"/>
   <line id="svg_323" y2="490.1" x2="434.7" y1="488.5" x1="433" class="st1"/>
   <line id="svg_324" y2="485.4" x2="429.1" y1="483.9" x1="427.7" class="st1"/>
   <line id="svg_325" y2="491" x2="434.7" y1="489.2" x1="433" class="st1"/>
   <line id="svg_326" y2="485.4" x2="428.5" y1="484.5" x1="427.7" class="st1"/>
   <line id="svg_327" y2="491.5" x2="434.7" y1="490.1" x1="433" class="st1"/>
   <line id="svg_328" y2="492.4" x2="434.7" y1="490.7" x1="433" class="st1"/>
   <line id="svg_329" y2="493.2" x2="434.7" y1="491.5" x1="433" class="st1"/>
   <line id="svg_330" y2="494" x2="434.7" y1="492.3" x1="433" class="st1"/>
   <line id="svg_331" y2="494.7" x2="434.7" y1="493.1" x1="433" class="st1"/>
   <line id="svg_332" y2="495.4" x2="434.7" y1="494" x1="433" class="st1"/>
   <line id="svg_333" y2="496.4" x2="434.7" y1="494.7" x1="433" class="st1"/>
   <line id="svg_334" y2="497.1" x2="434.7" y1="495.4" x1="433" class="st1"/>
   <line id="svg_335" y2="497.7" x2="434.6" y1="496.2" x1="433" class="st1"/>
   <line id="svg_336" y2="497.7" x2="433.8" y1="496.9" x1="433" class="st1"/>
   <line id="svg_337" y2="437.8" x2="434.7" y1="437.1" x1="434.2" class="st1"/>
   <line id="svg_338" y2="438.5" x2="434.7" y1="437.1" x1="433.4" class="st1"/>
   <line id="svg_339" y2="439.3" x2="434.7" y1="437.6" x1="433" class="st1"/>
   <line id="svg_340" y2="450.8" x2="434.7" y1="449.2" x1="433" class="st1"/>
   <line id="svg_341" y2="451" x2="434.2" y1="449.5" x1="432.5" class="st1"/>
   <line id="svg_342" y2="451" x2="433.4" y1="449.5" x1="432" class="st1"/>
   <line id="svg_343" y2="432.2" x2="437.7" y1="431.8" x1="437.3" class="st1"/>
   <line id="svg_344" y2="502.8" x2="438.8" y1="502.5" x1="438.6" class="st1"/>
   <line id="svg_345" y2="503.4" x2="438.8" y1="502.5" x1="437.9" class="st1"/>
   <line id="svg_346" y2="504.2" x2="438.8" y1="502.5" x1="437.3" class="st1"/>
   <line id="svg_347" y2="505" x2="438.8" y1="503.4" x1="437.3" class="st1"/>
   <line id="svg_348" y2="505.9" x2="438.8" y1="504.2" x1="437.3" class="st1"/>
   <line id="svg_349" y2="506.5" x2="438.8" y1="505" x1="437.3" class="st1"/>
   <line id="svg_350" y2="507.3" x2="438.8" y1="505.6" x1="437.3" class="st1"/>
   <line id="svg_351" y2="508.1" x2="438.8" y1="506.4" x1="437.3" class="st1"/>
   <line id="svg_352" y2="508.9" x2="438.8" y1="507.3" x1="437.3" class="st1"/>
   <line id="svg_353" y2="509.8" x2="438.8" y1="508.1" x1="437.3" class="st1"/>
   <line id="svg_354" y2="510.3" x2="438.8" y1="508.9" x1="437.3" class="st1"/>
   <line id="svg_355" y2="511.1" x2="438.8" y1="509.6" x1="437.3" class="st1"/>
   <line id="svg_356" y2="512" x2="438.8" y1="510.3" x1="437.3" class="st1"/>
   <line id="svg_357" y2="512.7" x2="438.8" y1="511.1" x1="437.3" class="st1"/>
   <line id="svg_358" y2="513.5" x2="438.8" y1="511.8" x1="437.3" class="st1"/>
   <line id="svg_359" y2="514.3" x2="438.8" y1="512.6" x1="437.3" class="st1"/>
   <line id="svg_360" y2="515" x2="438.8" y1="513.5" x1="437.3" class="st1"/>
   <line id="svg_361" y2="516" x2="438.8" y1="514.3" x1="437.3" class="st1"/>
   <line id="svg_362" y2="516.6" x2="438.8" y1="515" x1="437.3" class="st1"/>
   <line id="svg_363" y2="517.4" x2="438.8" y1="515.7" x1="437.3" class="st1"/>
   <line id="svg_364" y2="518.2" x2="438.8" y1="516.5" x1="437.3" class="st1"/>
   <line id="svg_365" y2="518.8" x2="438.8" y1="517.4" x1="437.3" class="st1"/>
   <line id="svg_366" y2="519.9" x2="438.8" y1="517.9" x1="437.3" class="st1"/>
   <line id="svg_367" y2="520.4" x2="438.8" y1="518.8" x1="437.3" class="st1"/>
   <line id="svg_368" y2="521.2" x2="438.8" y1="519.6" x1="437.3" class="st1"/>
   <line id="svg_369" y2="652.8" x2="438.1" y1="652.1" x1="437.3" class="st1"/>
   <rect id="svg_370" height="4.6" width="10.2" class="st3" y="883" x="490.9"/>
   <rect id="svg_371" height="4.7" width="10.1" class="st3" y="882.9" x="473.3"/>
   <rect id="svg_372" height="4.7" width="38.3" class="st3" transform="matrix(-1.83697e-16,1,-1,-1.83697e-16,1343.9993,392.7656) " y="866" x="456.5"/>
   <rect id="svg_373" height="4.7" width="43.3" class="st3" y="849.3" x="473.4"/>
   <rect id="svg_374" height="4.6" width="37.2" class="st3" transform="matrix(-1.83697e-16,1,-1,-1.83697e-16,1383.3296,354.5129) " y="866.6" x="495.8"/>
   <rect id="svg_375" height="4.6" width="7.2" class="st3" y="883" x="508.3"/>
   <rect id="svg_376" height="4" width="752.4" class="st3" transform="matrix(6.123234e-17,-1,1,6.123234e-17,-308.9418,905.3129) " y="605.1" x="-78"/>
   <rect id="svg_377" height="4.1" width="145.4" class="st3" y="231" x="295.8"/>
   <rect id="svg_378" height="4.1" width="133.3" class="st3" y="204.3" x="432.9"/>
   <path id="svg_379" d="m435.2,503.2l-0.3,0l0,0l-40.5,0l0,0.5l3.3,0l0,11.1l-3.4,0l0,0.5l29.1,0l0,4.6l0.3,0l0,0l11.2,0l0,0l0.3,0l0,-16.7zm-34.3,11.6l-2.7,0l0,-11.1l2.7,0l0,11.1zm3.2,0l-2.7,0l0,-11.1l2.7,0l0,11.1zm3.2,0l-2.7,0l0,-11.1l2.7,0l0,11.1zm3.2,0l-2.7,0l0,-11.1l2.7,0l0,11.1zm3.2,0l-2.7,0l0,-11.1l2.7,0l0,11.1zm3.2,0l-2.7,0l0,-11.1l2.7,0l0,11.1zm3.3,0l-2.7,0l0,-11.1l2.7,0l0,11.1zm3.2,0l-2.7,0l0,-11.1l2.7,0l0,11.1zm0.5,-11.1l10.7,0l0,11.1l-10.7,0l0,-11.1zm0,11.6l10.7,0l0,1.7l-10.7,0l0,-1.7zm0,2.3l10.7,0l0,1.7l-10.7,0l0,-1.7z" class="st3"/>
   <rect id="svg_380" height="4" width="141.1" class="st3" y="497.2" x="297.7"/>
   <rect id="svg_381" height="2.1" width="24.9" class="st3" transform="matrix(-1.83697e-16,1,-1,-1.83697e-16,947.5505,71.8327) " y="508.6" x="425.4"/>
   <rect id="svg_382" height="2" width="60.5" class="st3" transform="matrix(-1.83697e-16,1,-1,-1.83697e-16,1004.3087,128.6434) " y="565.5" x="407.6"/>
   <path id="svg_383" d="m434.9,609.7l0,0l-11.2,0l0,0l-0.3,0l0,4.7l-28.8,0l0,0l-0.5,0l0,12.2l0.2,0l0,0l29.1,0l0,0l0.5,0l0,0l10.7,0l0,0l0.5,0l0,-16.9l-0.2,0zm-0.3,0.5l0,1.7l-10.7,0l0,-1.7l10.7,0zm-10.7,2.3l10.7,0l0,1.9l-10.7,0l0,-1.9zm-22.5,2.5l2.7,0l0,11l-2.7,0l0,-11zm-0.6,11l-2.7,0l0,-11l2.7,0l0,11zm3.8,-11l2.7,0l0,11l-2.7,0l0,-11zm3.2,0l2.7,0l0,11l-2.7,0l0,-11zm3.2,0l2.7,0l0,11l-2.7,0l0,-11zm3.2,0l2.7,0l0,11l-2.7,0l0,-11zm3.2,0l2.7,0l0,11l-2.7,0l0,-11zm-19.8,0l0,11l-3,0l0,-11l3,0zm23.1,11l0,-11l2.7,0l0,11l-2.7,0zm3.2,0l0,-11l10.7,0l0,11l-10.7,0z" class="st3"/>
   <rect id="svg_384" height="4" width="141.1" class="st3" y="629.3" x="297.3"/>
   <rect id="svg_385" height="2.1" width="45.5" class="st3" transform="matrix(-1.83697e-16,1,-1,-1.83697e-16,1068.7283,193.2569) " y="630" x="415"/>
   <rect id="svg_386" height="2.1" width="78.2" class="st3" transform="matrix(-1.83697e-16,1,-1,-1.83697e-16,1145.6421,269.6631) " y="706.6" x="398.9"/>
   <polyline id="svg_387" points="302.1,626.4 394.3,626.4 394.3,503.4 302.1,503.4 302.1,626.4  " class="st2"/>
   <rect id="svg_388" height="4" width="141.1" class="st3" y="776.9" x="297.4"/>
   <rect id="svg_389" height="4" width="92" class="st3" y="912.2" x="296.5"/>
   <rect id="svg_390" height="2.1" width="15.6" class="st3" transform="matrix(-1.83697e-16,1,-1,-1.83697e-16,925.2229,57.6039) " y="490.4" x="426"/>
   <rect id="svg_391" height="2.1" width="15.1" class="st3" transform="matrix(-1.83697e-16,1,-1,-1.83697e-16,906.4674,49.8209) " y="477.1" x="420.7"/>
   <rect id="svg_392" height="2.1" width="8" class="st3" transform="matrix(-1.83697e-16,1,-1,-1.83697e-16,881.2122,24.7675) " y="451.9" x="424.2"/>
   <rect id="svg_393" height="2.1" width="8" class="st3" transform="matrix(-1,-1.224647e-16,1.224647e-16,-1,862.2931,900.0719) " y="449" x="427.2"/>
   <rect id="svg_394" height="2.1" width="14.3" class="st3" transform="matrix(6.123234e-17,-1,1,6.123234e-17,-9.8905,878.032) " y="442.9" x="426.9"/>
   <rect id="svg_395" height="2.1" width="5.9" class="st3" transform="matrix(-1,-1.224647e-16,1.224647e-16,-1,871.8397,874.1381) " y="436" x="433"/>
   <rect id="svg_396" height="2.1" width="30.2" class="st3" transform="matrix(6.123234e-17,-1,1,6.123234e-17,14.9372,861.0162) " y="422" x="422.9"/>
   <rect id="svg_397" height="2.1" width="49.6" class="st3" transform="matrix(6.123234e-17,-1,1,6.123234e-17,68.3913,808.006) " y="368.7" x="413.4"/>
   <rect id="svg_398" height="4" width="141.4" class="st3" y="365.2" x="296.2"/>
   <path id="svg_399" d="m434.8,371.3l-0.3,0l0,0l-40.5,0l0,0.5l3.3,0l0,11.1l-3.4,0l0,0.5l29.1,0l0,4.6l0.3,0l0,0l11.2,0l0,0l0.3,0l0,-16.7zm-34.3,11.6l-2.7,0l0,-11.1l2.7,0l0,11.1zm3.2,0l-2.7,0l0,-11.1l2.7,0l0,11.1zm3.2,0l-2.7,0l0,-11.1l2.7,0l0,11.1zm3.2,0l-2.7,0l0,-11.1l2.7,0l0,11.1zm3.2,0l-2.7,0l0,-11.1l2.7,0l0,11.1zm3.2,0l-2.7,0l0,-11.1l2.7,0l0,11.1zm3.3,0l-2.7,0l0,-11.1l2.7,0l0,11.1zm3.2,0l-2.7,0l0,-11.1l2.7,0l0,11.1zm0.5,-11.1l10.7,0l0,11.1l-10.7,0l0,-11.1zm0,11.6l10.7,0l0,1.7l-10.7,0l0,-1.7zm0,2.3l10.7,0l0,1.7l-10.7,0l0,-1.7z" class="st3"/>
   <path id="svg_400" d="m400.3,495l16.9,0l0,-0.5l0,0l0,-10.7l0,0l0,-0.5l0,0l0,-29.1l0,0l0,-0.2l-12.2,0l0,0.5l0,0l0,28.8l-4.7,0l0,0.3l0,0l0,11.2l0,0l0,0.2zm0.5,-11.3l1.7,0l0,10.7l-1.7,0l0,-10.7zm4.2,0l0,10.7l-1.9,0l0,-10.7l1.9,0zm11.7,-22.5l0,2.7l-11.1,0l0,-2.7l11.1,0zm-11.1,-0.6l0,-2.6l11.1,0l0,2.7l-11.1,0l0,-0.1zm11.1,3.8l0,2.7l-11.1,0l0,-2.7l11.1,0zm0,3.2l0,2.7l-11.1,0l0,-2.7l11.1,0zm0,3.2l0,2.7l-11.1,0l0,-2.7l11.1,0zm0,3.2l0,2.7l-11.1,0l0,-2.7l11.1,0zm0,3.3l0,2.7l-11.1,0l0,-2.7l11.1,0zm-11.1,-22.9l11.1,0l0,3l-11.1,0l0,-3zm11.1,28.8l-11.1,0l0,-2.7l11.1,0l0,2.7zm0,11.2l-11.1,0l0,-10.7l11.1,0l0,10.7z" class="st3"/>
   <polyline id="svg_401" points="301.7,494.5 393.9,494.5 393.9,371.6 301.7,371.6 301.7,494.5  " class="st2"/>
   <rect id="svg_402" height="2.1" width="7.6" class="st3" transform="matrix(-1,-1.224647e-16,1.224647e-16,-1,862.1328,969.3328) " y="483.6" x="427.3"/>
   <rect id="svg_403" height="1.8" width="48.3" class="st3" transform="matrix(6.123234e-17,-1,1,6.123234e-17,131.5255,744.4802) " y="305.6" x="413.9"/>
   <path id="svg_404" d="m434.5,346.3l0,0l-11.2,0l0,0l-0.3,0l0,4.7l-28.8,0l0,0l-0.5,0l0,12.2l0.2,0l0,0l29.1,0l0,0l0.5,0l0,0l10.7,0l0,0l0.5,0l0,-16.9l-0.2,0zm-0.3,0.5l0,1.7l-10.7,0l0,-1.7l10.7,0zm-10.7,2.3l10.7,0l0,1.9l-10.7,0l0,-1.9zm-22.5,2.5l2.7,0l0,11.1l-2.7,0l0,-11.1zm-0.6,11l-2.7,0l0,-11.1l2.7,0l0,11.1zm3.8,-11l2.7,0l0,11.1l-2.7,0l0,-11.1zm3.2,0l2.7,0l0,11.1l-2.7,0l0,-11.1zm3.2,0l2.7,0l0,11.1l-2.7,0l0,-11.1zm3.2,0l2.7,0l0,11.1l-2.7,0l0,-11.1zm3.2,0l2.7,0l0,11.1l-2.7,0l0,-11.1zm-19.8,0l0,11.1l-3,0l0,-11.1l3,0zm23.1,11l0,-11.1l2.7,0l0,11.1l-2.7,0zm3.2,0l0,-11.1l10.7,0l0,11.1l-10.7,0z" class="st3"/>
   <polyline id="svg_405" points="301.7,363 393.9,363 393.9,237.3 301.7,237.3 301.7,363  " class="st2"/>
   <rect id="svg_406" height="4.7" width="9.3" class="st3" transform="matrix(6.123234e-17,-1,1,6.123234e-17,157.5879,715.5607) " y="276.6" x="431.9"/>
   <rect id="svg_407" height="4.7" width="38.5" class="st3" y="278.9" x="400.4"/>
   <rect id="svg_408" height="4.7" width="28.9" class="st3" transform="matrix(6.123234e-17,-1,1,6.123234e-17,133.6545,671.961) " y="266.8" x="388.3"/>
   <rect id="svg_409" height="4.6" width="37.6" class="st3" y="254.7" x="401.5"/>
   <rect id="svg_410" height="4.6" width="9.1" class="st3" transform="matrix(6.123234e-17,-1,1,6.123234e-17,177.6111,696.0516) " y="256.9" x="432.3"/>
   <rect id="svg_411" height="4" width="861.1" class="st3" transform="matrix(6.123234e-17,-1,1,6.123234e-17,-124.8705,1255.8295) " y="688.4" x="134.9"/>
   <rect id="svg_412" height="4" width="79.3" class="st3" transform="matrix(6.123234e-17,-1,1,6.123234e-17,-783.6921,1379.2919) " y="1079.5" x="258.2"/>
   <rect id="svg_413" height="4" width="140.7" class="st3" y="1117.3" x="295.8"/>
   <rect id="svg_414" height="4" width="115.9" class="st3" y="1116.9" x="451.6"/>
   <rect id="svg_415" height="4.1" width="10.3" class="st3" transform="matrix(-1.83697e-16,1,-1,-1.83697e-16,675.4891,-203.1906) " y="234.1" x="434.2"/>
   <path id="svg_416" d="m434.8,635.3l-0.3,0l0,0l-40.5,0l0,0.5l3.3,0l0,11.1l-3.4,0l0,0.5l29.1,0l0,4.6l0.3,0l0,0l11.2,0l0,0l0.3,0l0,-16.7zm-34.3,11.6l-2.7,0l0,-11.1l2.7,0l0,11.1zm3.2,0l-2.7,0l0,-11.1l2.7,0l0,11.1zm3.2,0l-2.7,0l0,-11.1l2.7,0l0,11.1zm3.2,0l-2.7,0l0,-11.1l2.7,0l0,11.1zm3.2,0l-2.7,0l0,-11.1l2.7,0l0,11.1zm3.2,0l-2.7,0l0,-11.1l2.7,0l0,11.1zm3.3,0l-2.7,0l0,-11.1l2.7,0l0,11.1zm3.2,0l-2.7,0l0,-11.1l2.7,0l0,11.1zm0.5,-11.1l10.7,0l0,11.1l-10.7,0l0,-11.1zm0,11.6l10.7,0l0,1.7l-10.7,0l0,-1.7zm0,2.3l10.7,0l0,1.7l-10.7,0l0,-1.7z" class="st3"/>
   <polyline id="svg_417" points="301.7,774.5 393.9,774.5 393.9,635.6 301.7,635.6 301.7,774.5  " class="st2"/>
   <rect id="svg_418" height="4" width="142.6" class="st3" y="845.6" x="296.4"/>
   <polyline id="svg_419" points="529.8,300.5 565.5,300.5 565.5,240.9 529.8,240.9 529.8,300.5  " class="st2"/>
   <path id="svg_420" d="m498.5,257.8l0,27l31.6,0l0,-27l-31.6,0zm7.2,0.5l2.9,0l0,26l-2.9,0l0,-26zm-0.5,25.9l-2.9,0l0,-26l2.9,0l0,26zm4,-25.9l2.9,0l0,26l-2.9,0l0,-26zm3.4,0l2.9,0l0,26l-2.9,0l0,-26zm3.5,0l2.9,0l0,26l-2.9,0l0,-26zm3.5,0l2.9,0l0,26l-2.9,0l0,-26zm3.4,0l2.9,0l0,26l-2.9,0l0,-26zm-24,0l2.7,0l0,26l-2.7,0l0,-26zm30.5,25.9l-3.1,0l0,-26l3.1,0l0,26z" class="st3"/>
   <polyline id="svg_421" points="337.2,1043 297.8,1043 297.8,1118.5 337.2,1118.5 337.2,1043  " class="st2"/>
   <path id="svg_422" d="m368.6,1093.1l0,-27l-31.6,0l0,27l31.6,0zm-7.3,-0.6l-2.9,0l0,-26l2.9,0l0,26zm0.5,-25.9l2.9,0l0,26l-2.9,0l0,-26zm-4,25.9l-2.9,0l0,-26l2.9,0l0,26zm-3.4,0l-2.9,0l0,-26l2.9,0l0,26zm-3.5,0l-2.9,0l0,-26l2.9,0l0,26zm-3.4,0l-2.9,0l0,-26l2.9,0l0,26zm-3.5,0l-2.9,0l0,-26l2.9,0l0,26zm24,0l-2.7,0l0,-26l2.7,0l0,26zm-30.5,-25.9l3.1,0l0,26l-3.1,0l0,-26z" class="st3"/>
   <rect id="svg_423" height="14.9" width="25" class="st4" y="262" x="407.4"/>
   <path id="svg_428" d="m400.7,774l16.9,0l0,-0.5l0,0l0,-10.7l0,0l0,-0.5l0,0l0,-29.1l0,0l0,-0.2l-12.2,0l0,0.5l0,0l0,28.8l-4.7,0l0,0.3l0,0l0,11.2l0,0l0,0.2zm0.5,-11.2l1.7,0l0,10.7l-1.7,0l0,-10.7zm4.2,0l0,10.7l-1.9,0l0,-10.7l1.9,0zm11.7,-22.5l0,2.7l-11.1,0l0,-2.7l11.1,0zm-11.1,-0.6l0,-2.7l11.1,0l0,2.7l-11.1,0zm11.1,3.8l0,2.7l-11.1,0l0,-2.7l11.1,0zm0,3.2l0,2.7l-11.1,0l0,-2.7l11.1,0zm0,3.2l0,2.7l-11.1,0l0,-2.7l11.1,0zm0,3.2l0,2.7l-11.1,0l0,-2.7l11.1,0zm0,3.2l0,2.7l-11.1,0l0,-2.7l11.1,0zm-11.1,-22.8l11.1,0l0,3l-11.1,0l0,-3zm11.1,28.8l-11.1,0l0,-2.7l11.1,0l0,2.7zm0,11.2l-11.1,0l0,-10.7l11.1,0l0,10.7z" class="st3"/>
   <path id="svg_442" d="m490.8,698.8l-16.9,0l0,0.5l0,0l0,9.8l0,0l0,0.5l0,0l0,26.7l0,0l0,0.2l12.1,0l0,-0.5l0,0l0,-26.4l4.7,0l0,-0.2l0,0l0,-10.3l0,0l0,-0.3l0.1,0zm-0.6,10.3l-1.7,0l0,-9.8l1.7,0l0,9.8zm-4.2,0l0,-9.8l1.9,0l0,9.8l-1.9,0zm-11.6,20.7l0,-2.5l11.1,0l0,2.5l-11.1,0zm11.1,0.5l0,2.5l-11.1,0l0,-2.5l11.1,0zm-11.1,-3.5l0,-2.4l11.1,0l0,2.4l-11.1,0zm0,-2.9l0,-2.5l11.1,0l0,2.5l-11.1,0zm0,-2.9l0,-2.5l11.1,0l0,2.5l-11.1,0zm0,-3l0,-2.5l11.1,0l0,2.5l-11.1,0zm0,-2.9l0,-2.5l11.1,0l0,2.5l-11.1,0zm11.1,20.9l-11.1,0l0,-2.8l11.1,0l0,2.8zm-11.1,-26.4l11.1,0l0,2.5l-11.1,0l0,-2.5zm0,-10.3l11.1,0l0,9.8l-11.1,0l0,-9.8z" class="st3"/>
   <path id="svg_443" d="m491.1,845.9l0,0l0,-10.7l0,0l0,-0.2l-4.7,0l0,-27.3l0,0l0,-0.5l-12.2,0l0,0.2l0,0l0,27.6l0,0l0,0.5l0,0l0,10.2l0,0l0,0.5l16.9,0l0,-0.3zm-0.5,-0.3l-1.7,0l0,-10.2l1.7,0l0,10.2zm-2.3,-10.1l0,10.2l-1.9,0l0,-10.2l1.9,0zm-2.4,-21.4l0,2.5l-11.1,0l0,-2.5l11.1,0zm-11.1,-0.5l0,-2.6l11.1,0l0,2.5l-11.1,0l0,0.1zm11.1,3.5l0,2.5l-11.1,0l0,-2.5l11.1,0zm0,3.1l0,2.5l-11.1,0l0,-2.5l11.1,0zm0,3l0,2.5l-11.1,0l0,-2.5l11.1,0zm0,3.1l0,2.5l-11.1,0l0,-2.5l11.1,0zm0,3l0,2.6l-11.1,0l0,-2.6l11.1,0zm0,-18.8l-11.1,0l0,-2.9l11.1,0l0,2.9zm-11.1,21.9l11.1,0l0,2.5l-11.1,0l0,-2.5zm0,3.1l11.1,0l0,10.2l-11.1,0l0,-10.2z" class="st3"/>
   <polyline id="svg_444" points="498.2,845.6 561.1,845.6 561.1,698.8 498.2,698.8 498.2,845.6  " class="st2"/>
   <text xml:space="preserve" text-anchor="start" font-family="null" font-size="null" id="svg_529" y="301" x="337" fill-opacity="null" stroke-opacity="null" stroke-width="null" stroke="null" fill="null">108A</text>
   <text xml:space="preserve" text-anchor="start" font-family="null" font-size="null" id="svg_530" y="437" x="337" fill-opacity="null" stroke-opacity="null" stroke-width="null" stroke="null" fill="null">107A</text>
   <text xml:space="preserve" text-anchor="start" font-family="null" font-size="null" id="svg_531" y="567" x="337" fill-opacity="null" stroke-opacity="null" stroke-width="null" stroke="null" fill="null">106A</text>
  </g>
  <g id="Layer_2">
   <rect id="svg_450" height="1.8" width="11.9" class="st3" transform="matrix(6.123234e-17,-1,1,6.123234e-17,162.5661,778.906) " y="307.2" x="464.8"/>
   <rect id="svg_451" height="1.8" width="35" class="st3" transform="matrix(6.123234e-17,-1,1,6.123234e-17,95.4771,846.2826) " y="374.5" x="453.4"/>
   <rect id="svg_452" height="1.8" width="55.8" class="st3" transform="matrix(6.123234e-17,-1,1,6.123234e-17,39.241,902.4922) " y="430.7" x="443"/>
   <rect id="svg_453" height="1.8" width="5.6" class="st3" transform="matrix(0.7482,-0.6635,0.6635,0.7482,-117.8111,403.4504) " y="356" x="469.8"/>
   <rect id="svg_454" height="1.8" width="4.9" class="st3" transform="matrix(0.7482,-0.6635,0.6635,0.7482,-109.3711,408.5646) " y="347.4" x="481.1"/>
   <rect id="svg_455" height="1.8" width="5.6" class="st3" transform="matrix(0.78,0.6258,-0.6258,0.78,301.2036,-226.3889) " y="314.2" x="469.8"/>
   <rect id="svg_456" height="1.8" width="63.2" class="st3" transform="matrix(-1,-1.224647e-16,1.224647e-16,-1,1031.9946,672.8197) " y="335.5" x="484.4"/>
   <rect id="svg_457" height="1.8" width="42.3" class="st3" transform="matrix(6.123234e-17,-1,1,6.123234e-17,179.9252,852.0695) " y="335.1" x="494.8"/>
   <rect id="svg_458" height="4" width="97.5" class="st3" y="366.1" x="470"/>
   <rect id="svg_459" height="1.8" width="101.1" class="st3" transform="matrix(6.123234e-17,-1,1,6.123234e-17,-116.826,1058.7706) " y="586.9" x="420.4"/>
   <rect id="svg_460" height="1.8" width="87.6" class="st3" transform="matrix(6.123234e-17,-1,1,6.123234e-17,-222.2815,1163.8176) " y="692.1" x="427"/>
   <rect id="svg_461" height="1.8" width="47.8" class="st3" transform="matrix(6.123234e-17,-1,1,6.123234e-17,-300.6296,1242.1656) " y="770.5" x="446.9"/>
   <rect id="svg_462" height="1.8" width="41.7" class="st3" transform="matrix(6.123234e-17,-1,1,6.123234e-17,-357.301,1299.3762) " y="827.4" x="450.2"/>
   <rect id="svg_463" height="1.8" width="102" class="st3" transform="matrix(-1,-1.224647e-16,1.224647e-16,-1,1026.1289,1697.0446) " y="847.6" x="462.1"/>
   <path id="svg_464" d="m516.7,927.2c-1.2,20.3 -15.7,39.9 -35.6,47.5c-2.3,0.9 -4.6,1.6 -6.9,2.1l-0.5,-1.9c2.2,-0.5 4.4,-1.2 6.6,-2c19.1,-7.3 32.6,-24.6 34.5,-45.7l1.9,0z" class="st3"/>
   <rect id="svg_465" height="1.8" width="14.4" class="st3" transform="matrix(6.123234e-17,-1,1,6.123234e-17,-379.8603,1330.1815) " y="854.1" x="468"/>
   <rect id="svg_466" height="1.8" width="45.1" class="st3" transform="matrix(6.123234e-17,-1,1,6.123234e-17,-390.0595,1421.611) " y="904.9" x="493.2"/>
   <path id="svg_467" d="m438,849.4c-17.1,4.1 -28.5,12.3 -36,21.9l-1.7,-1c7.8,-10.2 19.7,-18.9 37.4,-22.9l0.3,2z" class="st3"/>
   <path id="svg_468" d="m388.8,916.2l-2.1,0c-0.4,-8.8 0.9,-21 6,-32.8l1.7,0.9c-5.1,11.9 -6,23.9 -5.6,31.9z" class="st3"/>
   <rect id="svg_469" height="1.8" width="32.4" class="st3" transform="matrix(6.123234e-17,-1,1,6.123234e-17,-395.2506,1271.2295) " y="832.3" x="421.8"/>
   <rect id="svg_470" height="1.8" width="10.4" class="st3" transform="matrix(-1,-1.224647e-16,1.224647e-16,-1,885.2534,1697.3508) " y="847.8" x="437.4"/>
   <rect id="svg_471" height="1.8" width="53.1" class="st3" transform="matrix(6.123234e-17,-1,1,6.123234e-17,-528.5389,1474.4022) " y="1000.5" x="446.4"/>
   <rect id="svg_472" height="1.8" width="7.8" class="st3" transform="matrix(6.123234e-17,-1,1,6.123234e-17,-569.7388,1515.0797) " y="1041.5" x="468.8"/>
   <rect id="svg_473" height="1.8" width="74.6" class="st3" transform="matrix(6.123234e-17,-1,1,6.123234e-17,-652.751,1507.5688) " y="1079.2" x="390.1"/>
   <rect id="svg_474" height="1.8" width="103.6" class="st3" transform="matrix(-1,-1.224647e-16,1.224647e-16,-1,696.3801,2085.3928) " y="1041.8" x="296.4"/>
   <rect id="svg_475" height="1.8" width="14.1" class="st3" transform="matrix(-1,-1.224647e-16,1.224647e-16,-1,842.6127,2085.3928) " y="1041.8" x="414.3"/>
   <rect id="svg_476" height="1.8" width="95.1" class="st3" transform="matrix(-1,-1.224647e-16,1.224647e-16,-1,1038.5051,2085.5234) " y="1041.8" x="471.7"/>
   <rect id="svg_477" height="1.8" width="77.2" class="st3" transform="matrix(6.123234e-17,-1,1,6.123234e-17,-548.2961,1614.4486) " y="1080.4" x="494.5"/>
   <rect id="svg_478" height="1.8" width="73.5" class="st3" transform="matrix(-1,-1.224647e-16,1.224647e-16,-1,994.6661,2148.4846) " y="1073.3" x="460.6"/>
   <rect id="svg_479" height="1.8" width="39.5" class="st3" transform="matrix(6.123234e-17,-1,1,6.123234e-17,-571.3521,1576.3885) " y="1072.9" x="482.7"/>
   <rect id="svg_480" height="1.8" width="18.9" class="st3" transform="matrix(6.123234e-17,-1,1,6.123234e-17,-592.8626,1538.3341) " y="1064.7" x="463.3"/>
   <rect id="svg_481" height="1.8" width="29.7" class="st3" transform="matrix(6.123234e-17,-1,1,6.123234e-17,-641.9721,1564.5986) " y="1102.4" x="446.5"/>
   <rect id="svg_482" height="1.8" width="4.8" class="st3" transform="matrix(6.123234e-17,-1,1,6.123234e-17,-614.2856,1537.1591) " y="1074.8" x="459"/>
   <rect id="svg_483" height="1.8" width="35.7" class="st3" transform="matrix(-1,-1.224647e-16,1.224647e-16,-1,888.8245,2184.7983) " y="1091.5" x="426.5"/>
   <rect id="svg_484" height="1.8" width="11.1" class="st3" transform="matrix(-1,-1.224647e-16,1.224647e-16,-1,932.6271,2213.0134) " y="1105.6" x="460.7"/>
   <rect id="svg_485" height="1.8" width="53.7" class="st3" transform="matrix(-1,-1.224647e-16,1.224647e-16,-1,1014.4289,2212.7847) " y="1105.5" x="480.4"/>
   <rect id="svg_486" height="1.8" width="45.3" class="st3" transform="matrix(6.123234e-17,-1,1,6.123234e-17,-342.4971,1218.4761) " y="779.6" x="415.4"/>
   <rect id="svg_487" height="1.8" width="9.6" class="st3" transform="matrix(6.123234e-17,-1,1,6.123234e-17,-553.3091,1280.7675) " y="916.1" x="358.9"/>
   <rect id="svg_488" height="1.8" width="15.6" class="st3" transform="matrix(6.123234e-17,-1,1,6.123234e-17,-575.1791,1302.507) " y="937.9" x="355.9"/>
   <rect id="svg_489" height="1.8" width="7.9" class="st3" transform="matrix(6.123234e-17,-1,1,6.123234e-17,-619.3663,1279.0303) " y="948.3" x="325.9"/>
   <rect id="svg_490" height="1.8" width="35.3" class="st3" y="944.7" x="328.9"/>
   <rect id="svg_491" height="1.8" width="55.9" class="st3" transform="matrix(6.123234e-17,-1,1,6.123234e-17,-661.5944,1320.9972) " y="990.4" x="301.8"/>
   <rect id="svg_492" height="1.8" width="34.3" class="st3" transform="matrix(-1,-1.224647e-16,1.224647e-16,-1,626.9485,1964.8092) " y="981.5" x="296.3"/>
   <rect id="svg_493" height="1.8" width="97.3" class="st3" transform="matrix(-1,-1.224647e-16,1.224647e-16,-1,1037.3009,1392.2966) " y="695.2" x="470"/>
   <rect id="svg_494" height="1.8" width="97.2" class="st3" transform="matrix(-1,-1.224647e-16,1.224647e-16,-1,1036.8585,1326.3474) " y="662.3" x="469.8"/>
   <rect id="svg_495" height="1.8" width="97" class="st3" transform="matrix(-1,-1.224647e-16,1.224647e-16,-1,1037.9176,1130.0015) " y="564.1" x="470.4"/>
   <rect id="svg_496" height="4" width="55.4" class="st3" transform="matrix(-1.83697e-16,1,-1,-1.83697e-16,797.5505,-333.4085) " y="230.1" x="537.8"/>
   <rect id="svg_497" height="1.8" width="96.2" class="st3" y="239.9" x="470.4"/>
   <rect id="svg_498" height="1.8" width="22.2" class="st3" y="240.1" x="437.6"/>
   <rect id="svg_499" height="1.8" width="11.5" class="st3" transform="matrix(-1.83697e-16,1,-1,-1.83697e-16,711.138,-285.6692) " y="211.8" x="492.7"/>
   <rect id="svg_500" height="1.8" width="11.5" class="st3" transform="matrix(-1.83697e-16,1,-1,-1.83697e-16,733.8378,-262.3163) " y="234.8" x="492.3"/>
   <rect id="svg_501" height="1.8" width="23.3" class="st3" transform="matrix(6.123234e-17,-1,1,6.123234e-17,149.101,820.928) " y="335" x="473.4"/>
   <rect id="svg_502" height="1.8" width="5.3" class="st3" transform="matrix(0.78,0.6258,-0.6258,0.78,308.6786,-231.3046) " y="322.4" x="480.6"/>
   <rect id="svg_503" height="4" width="16.3" class="st3" y="300" x="437.2"/>
   <rect id="svg_504" height="4" width="99.1" class="st3" y="300" x="467.7"/>
   <rect id="svg_505" height="1.8" width="54.9" class="st3" transform="matrix(-1.83697e-16,1,-1,-1.83697e-16,886.463,-206.9349) " y="338.8" x="519.2"/>
   <rect id="svg_506" height="1.8" width="12.3" class="st3" transform="matrix(6.123234e-17,-1,1,6.123234e-17,-716.6713,1311.197) " y="1013" x="291.1"/>
   <rect id="svg_507" height="1.8" width="11.7" class="st3" transform="matrix(6.123234e-17,-1,1,6.123234e-17,-743.583,1337.412) " y="1039.6" x="291.1"/>
   <rect id="svg_508" height="1.8" width="6.9" class="st3" transform="matrix(-1.83697e-16,1,-1,-1.83697e-16,641.135,-225.439) " y="206.9" x="429.8"/>
   <rect id="svg_509" height="1.8" width="8.5" class="st3" transform="matrix(-1.83697e-16,1,-1,-1.83697e-16,663.4773,-203.0967) " y="229.3" x="429.1"/>
   <rect id="svg_510" height="1.8" width="36.2" class="st3" transform="matrix(-1.83697e-16,1,-1,-1.83697e-16,698.6835,-251.3681) " y="222.7" x="456.9"/>
   <rect id="svg_511" height="1.8" width="23.1" class="st3" transform="matrix(-1.83697e-16,1,-1,-1.83697e-16,683.0322,-193.3654) " y="243.9" x="426.6"/>
   <line id="svg_512" y2="276.5" x2="431.9" y1="262.4" x1="407.7" class="st11"/>
   <line id="svg_513" y2="262.3" x2="432.2" y1="276.8" x1="407.5" class="st11"/>
   <rect id="svg_514" height="14.9" width="25" class="st4" transform="matrix(-1.83697e-16,1,-1,-1.83697e-16,1355.5333,381.4273) " y="861" x="474.5"/>
   <line id="svg_515" y2="881" x2="480" y1="856.8" x1="494.1" class="st11"/>
   <line id="svg_516" y2="881.2" x2="494.2" y1="856.6" x1="479.7" class="st11"/>
   <rect id="svg_517" height="12.7" width="19.2" class="st4" transform="matrix(-1.83697e-16,1,-1,-1.83697e-16,1375.7285,367.775) " y="865.4" x="494.4"/>
   <line id="svg_518" y2="881" x2="498.2" y1="862.5" x1="510.2" class="st11"/>
   <line id="svg_519" y2="881.2" x2="510.3" y1="862.3" x1="498" class="st11"/>
   <rect id="svg_520" height="1.8" width="11.7" class="st3" transform="matrix(6.123234e-17,-1,1,6.123234e-17,-682.8113,1277.0509) " y="979" x="291.3"/>
   <rect id="svg_521" height="1.8" width="33" class="st3" y="1010.5" x="296.9"/>
   <rect id="svg_522" height="1.8" width="9" class="st3" transform="matrix(6.123234e-17,-1,1,6.123234e-17,-709.4375,1368.8403) " y="1038.2" x="325.2"/>
   <path id="svg_523" d="m364.6,945.2c-0.4,15.8 -12,30.7 -28.9,36.5c-2,0.7 -5.3,1.2 -7.3,1.6l-0.4,-1.5c1.9,-0.4 3.7,-1 5.6,-1.6c16.9,-5.1 27.7,-18.9 29.3,-35l1.7,0z" class="st3"/>
   <rect id="svg_524" height="1.8" width="91.4" class="st3" transform="matrix(-1,-1.224647e-16,1.224647e-16,-1,1036.7168,2020.0764) " y="1009.1" x="472.7"/>
   <rect id="svg_525" height="1.8" width="14.9" class="st3" transform="matrix(6.123234e-17,-1,1,6.123234e-17,-507.4314,1527.0931) " y="1016.3" x="502.4"/>
   <rect id="svg_526" height="1.8" width="97" class="st3" transform="matrix(-1,-1.224647e-16,1.224647e-16,-1,1037.9176,1000.4244) " y="499.3" x="470.4"/>
   <rect id="svg_527" height="1.8" width="97" class="st3" transform="matrix(-1,-1.224647e-16,1.224647e-16,-1,1037.3961,869.6747) " y="433.9" x="470.2"/>
   <rect id="svg_528" height="1.8" width="55.8" class="st3" transform="matrix(6.123234e-17,-1,1,6.123234e-17,-26.7969,968.5303) " y="496.7" x="443"/>
  </g>
  <text xml:space="preserve" text-anchor="start" font-family="null" font-size="null" id="svg_534" y="706" x="337" fill-opacity="null" stroke-opacity="null" stroke-width="null" stroke="null" fill="null">105A</text>
  <text xml:space="preserve" text-anchor="start" font-family="null" font-size="null" id="svg_535" y="776.029409" x="511.441177" fill-opacity="null" stroke-opacity="null" stroke-width="null" stroke="null" fill="null">120A</text>
 </g>
</svg>