<?xml version="1.0" encoding="UTF-8" standalone="no"?>
<!DOCTYPE svg PUBLIC "-//W3C//DTD SVG 1.1//EN" "http://www.w3.org/Graphics/SVG/1.1/DTD/svg11.dtd">
<svg version="1.1" xmlns="http://www.w3.org/2000/svg" xmlns:xlink="http://www.w3.org/1999/xlink" preserveAspectRatio="xMidYMid meet" viewBox="0 0 640 640" width="640" height="640"><defs><path d="M431.44 240.22C431.44 372.8 334.78 480.44 215.72 480.44C96.66 480.44 0 372.8 0 240.22C0 107.64 96.66 0 215.72 0C334.78 0 431.44 107.64 431.44 240.22Z" id="c1TqujYxUq"></path><path d="M295.83 240.22C295.83 281.83 259.93 315.62 215.72 315.62C171.51 315.62 135.61 281.83 135.61 240.22C135.61 198.6 171.51 164.82 215.72 164.82C259.93 164.82 295.83 198.6 295.83 240.22Z" id="erKwNqRh8"></path><path d="M55.7 399.34L216.41 641.81L377.36 399.34L55.7 399.34Z" id="epOc09o18"></path></defs><g><g><g><use xlink:href="#c1TqujYxUq" opacity="1" fill="#ff0081" fill-opacity="1"></use></g><g><use xlink:href="#erKwNqRh8" opacity="1" fill="#ffffff" fill-opacity="1"></use><g><use xlink:href="#erKwNqRh8" opacity="1" fill-opacity="0" stroke="#000000" stroke-width="1" stroke-opacity="1"></use></g></g><g><use xlink:href="#epOc09o18" opacity="1" fill="#ff0081" fill-opacity="1"></use><g><use xlink:href="#epOc09o18" opacity="1" fill-opacity="0" stroke="#000000" stroke-width="0" stroke-opacity="1"></use></g></g></g></g></svg>